<svg width="1225" height="286" viewBox="0 0 1225 286" fill="none" xmlns="http://www.w3.org/2000/svg">
<path d="M53.1556 12.6562H17.7181C14.876 12.6562 13.233 13.8997 13.233 17.1414V26.6891H0.177063V11.6349C0.177063 2.88652 3.01914 0 11.8119 0H108.799C117.547 0 120.433 2.84211 120.433 11.6349V26.6891H107.2V17.1414C107.2 13.8997 105.779 12.6562 102.715 12.6562H67.4549V143.26H53.2V12.6562H53.1556Z" fill="#3B2AFF"/>
<path d="M166.839 38.335C195.171 38.335 209.825 60.1392 209.825 85.6293C209.825 88.0717 209.426 92.557 209.426 92.557H130.779C131.179 118.447 149.342 133.323 170.524 133.323C189.265 133.323 201.299 120.712 201.299 120.712L208.005 131.103C208.005 131.103 193.128 145.758 169.903 145.758C139.528 145.758 116.302 123.731 116.302 92.1573C116.347 58.4961 139.35 38.335 166.839 38.335ZM195.571 81.5438C194.771 60.3612 181.715 49.9698 166.661 49.9698C149.742 49.9698 134.865 60.983 131.401 81.5438H195.571Z" fill="#3B2AFF"/>
<path d="M281.989 38.335C293.624 38.335 318.448 43.2198 318.448 60.1392V69.2872H305.392V63.381C305.392 54.8103 290.516 50.7692 281.945 50.7692C259.919 50.7692 242.2 67.2889 242.2 92.1128C242.2 117.381 260.718 133.057 282.345 133.057C303.35 133.057 315.34 118.58 315.34 118.58L321.868 128.971C321.868 128.971 308.012 145.669 281.723 145.669C251.17 145.669 227.945 123.864 227.945 92.0685C227.989 60.7609 251.392 38.335 281.989 38.335Z" fill="#3B2AFF"/>
<path d="M343.894 16.5197C343.894 13.6776 342.251 12.0345 339.409 12.0345H330.838V0H345.315C354.063 0 357.749 3.68586 357.749 12.0345V55.421C357.749 60.0838 357.35 63.7697 357.35 63.7697H357.749C361.613 53.9999 375.29 38.2796 398.294 38.2796C423.739 38.2796 432.71 52.7565 432.71 78.0246V126.696C432.71 129.76 434.353 131.181 437.195 131.181H445.766V143.215H431.289C422.54 143.215 418.854 139.529 418.854 130.781V81.7104C418.854 65.5904 416.412 51.3355 396.428 51.3355C379.109 51.3355 364.055 63.37 359.348 80.467C358.105 84.5525 357.705 89.2154 357.705 94.1002V143.215H343.85V16.5197H343.894Z" fill="#3B2AFF"/>
<path d="M467.791 57.2907C467.791 54.4486 466.147 52.8055 463.305 52.8055H454.735V40.771H468.989C477.56 40.771 481.423 44.4569 481.423 52.1838V56.8467C481.423 60.9322 481.024 64.1739 481.024 64.1739H481.423C485.109 54.8039 498.121 38.2842 522.19 38.2842C547.636 38.2842 556.606 52.7611 556.606 78.0292V126.7C556.606 129.764 558.249 131.185 561.091 131.185H569.662V143.22H555.185C546.437 143.22 542.751 139.534 542.751 130.786V81.715C542.751 65.595 540.309 51.3401 520.547 51.3401C503.006 51.3401 487.952 63.3746 483.289 80.2496C482.045 84.5127 481.646 89.22 481.646 94.1048V143.22H467.791V57.2907Z" fill="#3B2AFF"/>
<path d="M759.151 52.3704H745.696V40.7355H759.329V12.4033H772.962V40.7355H798.63V52.3704H772.962V104.55C772.962 128.574 788.238 131.638 795.965 131.638C798.807 131.638 800.672 131.239 800.672 131.239V143.673C800.672 143.673 798.23 144.073 794.766 144.073C782.954 144.073 759.107 140.209 759.107 105.971V52.3704H759.151Z" fill="#3B2AFF"/>
<path d="M824.12 16.5197C824.12 13.6776 822.477 12.0345 819.634 12.0345H811.064V0H825.541C834.289 0 837.975 3.68586 837.975 12.0345V55.421C837.975 60.0838 837.575 63.7697 837.575 63.7697H837.975C841.838 53.9999 855.472 38.2796 878.519 38.2796C903.965 38.2796 912.935 52.7565 912.935 78.0246V126.696C912.935 129.76 914.578 131.181 917.421 131.181H925.991V143.215H911.514C902.766 143.215 899.08 139.529 899.08 130.781V81.7104C899.08 65.5904 896.637 51.3355 876.654 51.3355C859.335 51.3355 844.236 63.37 839.573 80.467C838.33 84.5525 837.93 89.2154 837.93 94.1002V143.215H824.075V16.5197H824.12Z" fill="#3B2AFF"/>
<path d="M947.796 16.5197C947.796 13.6776 946.153 12.0345 943.311 12.0345H934.74V0H949.217C957.966 0 961.652 3.68586 961.652 12.4342V126.74C961.652 129.804 963.295 131.225 966.137 131.225H974.708V143.26H960.231C951.482 143.26 947.796 139.574 947.796 130.825V16.5197Z" fill="#3B2AFF"/>
<path d="M1042.34 38.335C1072.27 38.335 1096.52 61.1606 1096.52 91.5355C1096.52 122.488 1072.27 145.713 1042.52 145.713C1012.59 145.713 988.342 122.488 988.342 91.5355C988.342 61.1606 1012.59 38.335 1042.34 38.335ZM1042.52 133.279C1064.32 133.279 1082.26 115.338 1082.26 91.5355C1082.26 68.3102 1064.32 50.9912 1042.52 50.9912C1020.49 50.9912 1002.6 68.3102 1002.6 91.5355C1002.6 115.338 1020.54 133.279 1042.52 133.279Z" fill="#3B2AFF"/>
<path d="M1122.41 57.2907C1122.41 54.4486 1120.77 52.8055 1117.92 52.8055H1109.35V40.771H1123.61C1132.18 40.771 1136.04 44.4569 1136.04 52.1838V56.8467C1136.04 60.9322 1135.64 64.1739 1135.64 64.1739H1136.04C1139.68 54.8039 1152.74 38.2842 1176.81 38.2842C1202.25 38.2842 1211.22 52.7611 1211.22 78.0292V126.7C1211.22 129.764 1212.87 131.185 1215.71 131.185H1224.28V143.22H1209.8C1201.06 143.22 1197.37 139.534 1197.37 130.786V81.715C1197.37 65.595 1194.93 51.3401 1175.17 51.3401C1157.62 51.3401 1142.57 63.3746 1137.86 80.2496C1136.62 84.5127 1136.22 89.22 1136.22 94.1048V143.22H1122.36V57.2907H1122.41Z" fill="#3B2AFF"/>
<path d="M4.44023 188.45H-0.000549316V183.165H4.57345V173.795H11.0126V183.165H19.1837V188.45H11.0126V204.125C11.0126 210.964 15.7199 211.852 18.2511 211.852C19.1837 211.852 19.8053 211.719 19.8053 211.719V217.537C19.8053 217.537 18.9172 217.67 17.4961 217.67C13.1886 217.67 4.44023 216.338 4.44023 204.925V188.45Z" fill="#231F20"/>
<path d="M27.2225 176.758C27.2225 175.737 26.6895 175.293 25.7569 175.293H23.0037V169.697H29.4873C32.507 169.697 33.7949 170.985 33.7949 173.872V187.194C33.7949 188.837 33.6617 190.036 33.6617 190.036H33.7949C35.2603 186.705 39.6566 182.398 46.4954 182.398C54.5333 182.398 58.1747 186.794 58.1747 195.498V210.286C58.1747 211.307 58.7076 211.796 59.6401 211.796H62.3934V217.391H55.9988C52.9347 217.391 51.6912 216.103 51.6912 213.084V197.008C51.6912 192.212 50.6698 188.437 45.2076 188.437C40.0119 188.437 35.7932 191.946 34.4165 196.875C33.928 198.207 33.7949 199.761 33.7949 201.404V217.436H27.2225V176.758Z" fill="#231F20"/>
<path d="M83.3522 182.354C92.9443 182.354 98.0957 189.504 98.0957 198.386C98.0957 199.274 97.8737 201.095 97.8737 201.095H72.9608C73.3605 208.377 78.6451 212.507 84.729 212.507C90.5908 212.507 94.7208 208.511 94.7208 208.511L97.5628 213.174C97.5628 213.174 92.5003 218.192 84.3737 218.192C73.5826 218.192 66.2109 210.42 66.2109 200.295C66.2109 189.415 73.6269 182.354 83.3522 182.354ZM91.3457 196.299C91.1237 190.614 87.5711 187.595 83.3079 187.595C78.2898 187.595 74.2486 190.614 73.2273 196.299H91.3457Z" fill="#231F20"/>
<path d="M125.317 190.268C125.317 189.247 124.784 188.803 123.852 188.803H121.098V183.207H127.537C130.557 183.207 131.845 184.495 131.845 187.515V210.296C131.845 211.318 132.378 211.806 133.31 211.806H136.064V217.402H129.625C126.605 217.402 125.317 216.114 125.317 213.094V190.268ZM125.45 169.663H131.312V176.502H125.45V169.663Z" fill="#231F20"/>
<path d="M143.525 190.265C143.525 189.244 142.992 188.8 142.059 188.8H139.306V183.205H145.568C148.454 183.205 149.875 184.492 149.875 186.979V188.267C149.875 189.333 149.742 190.221 149.742 190.221H149.875C151.207 187.246 155.293 182.405 162.709 182.405C170.836 182.405 174.477 186.802 174.477 195.506V210.293C174.477 211.315 175.01 211.803 175.943 211.803H178.696V217.399H172.212C169.193 217.399 167.905 216.111 167.905 213.091V197.015C167.905 192.219 166.972 188.445 161.466 188.445C156.181 188.445 152.007 191.909 150.675 196.838C150.186 198.17 150.053 199.724 150.053 201.412V217.443H143.48V190.265H143.525Z" fill="#231F20"/>
<path d="M186.112 188.45H181.671V183.165H186.245V173.795H192.684V183.165H200.855V188.45H192.684V204.125C192.684 210.964 197.436 211.852 199.923 211.852C200.855 211.852 201.477 211.719 201.477 211.719V217.537C201.477 217.537 200.589 217.67 199.168 217.67C194.86 217.67 186.112 216.338 186.112 204.925V188.45Z" fill="#231F20"/>
<path d="M222.837 182.354C232.429 182.354 237.581 189.504 237.581 198.386C237.581 199.274 237.359 201.095 237.359 201.095H212.446C212.845 208.377 218.13 212.507 224.214 212.507C230.076 212.507 234.206 208.511 234.206 208.511L237.048 213.174C237.048 213.174 231.985 218.192 223.859 218.192C213.068 218.192 205.696 210.42 205.696 200.295C205.696 189.415 213.112 182.354 222.837 182.354ZM230.786 196.299C230.564 190.614 227.012 187.595 222.748 187.595C217.73 187.595 213.689 190.614 212.668 196.299H230.786Z" fill="#231F20"/>
<path d="M246.286 190.263C246.286 189.242 245.753 188.798 244.82 188.798H242.067V183.202H248.284C251.259 183.202 252.68 184.401 252.68 187.199V189.375C252.68 190.707 252.547 191.729 252.547 191.729H252.68C254.279 186.711 258.231 182.803 263.472 182.803C264.36 182.803 265.248 182.936 265.248 182.936V189.419C265.248 189.419 264.36 189.197 263.294 189.197C259.119 189.197 255.256 192.173 253.702 197.235C253.08 199.189 252.902 201.276 252.902 203.364V217.352H246.33V190.263H246.286Z" fill="#231F20"/>
<path d="M272.884 190.265C272.884 189.244 272.351 188.8 271.418 188.8H268.665V183.205H274.971C277.857 183.205 279.278 184.492 279.278 186.979V188.267C279.278 189.333 279.145 190.221 279.145 190.221H279.278C280.611 187.246 284.696 182.405 292.112 182.405C300.239 182.405 303.88 186.802 303.88 195.506V210.293C303.88 211.315 304.413 211.803 305.39 211.803H308.143V217.399H301.66C298.64 217.399 297.352 216.111 297.352 213.091V197.015C297.352 192.219 296.42 188.445 290.913 188.445C285.629 188.445 281.454 191.909 280.122 196.838C279.634 198.17 279.5 199.724 279.5 201.412V217.443H272.928V190.265H272.884Z" fill="#231F20"/>
<path d="M332.525 196.077H333.99V195.766C333.99 189.771 331.77 187.595 326.441 187.595C324.798 187.595 320.846 187.994 320.846 190.215V192.169H314.717V188.794C314.717 183.198 323.244 182.354 326.53 182.354C337.587 182.354 340.563 188.172 340.563 195.721V210.243C340.563 211.264 341.096 211.752 342.028 211.752H344.782V217.348H338.653C335.634 217.348 334.39 215.882 334.39 213.44C334.39 212.285 334.523 211.397 334.523 211.397H334.39C334.39 211.397 331.681 218.147 323.51 218.147C317.648 218.147 311.875 214.55 311.875 207.756C311.92 196.743 326.796 196.077 332.525 196.077ZM324.976 212.907C330.527 212.907 334.079 207.09 334.079 202.027V200.873H332.392C327.463 200.873 318.537 201.139 318.537 207.445C318.537 210.198 320.624 212.907 324.976 212.907Z" fill="#231F20"/>
<path d="M352.198 188.45H347.757V183.165H352.331V173.795H358.726V183.165H366.897V188.45H358.726V204.125C358.726 210.964 363.478 211.852 365.965 211.852C366.897 211.852 367.519 211.719 367.519 211.719V217.537C367.519 217.537 366.631 217.67 365.21 217.67C360.902 217.67 352.154 216.338 352.154 204.925V188.45H352.198Z" fill="#231F20"/>
<path d="M376.045 190.268C376.045 189.247 375.512 188.803 374.58 188.803H371.826V183.207H378.221C381.241 183.207 382.529 184.495 382.529 187.515V210.296C382.529 211.318 383.061 211.806 383.994 211.806H386.747V217.402H380.353C377.288 217.402 376.045 216.114 376.045 213.094V190.268ZM376.178 169.663H382.04V176.502H376.178V169.663Z" fill="#231F20"/>
<path d="M409.35 182.354C419.564 182.354 427.779 189.859 427.779 200.206C427.779 210.598 419.519 218.192 409.35 218.192C399.136 218.192 390.965 210.642 390.965 200.206C390.965 189.859 399.136 182.354 409.35 182.354ZM409.35 212.507C415.834 212.507 421.118 207.401 421.118 200.206C421.118 193.101 415.834 188.039 409.35 188.039C402.911 188.039 397.671 193.101 397.671 200.206C397.626 207.356 402.911 212.507 409.35 212.507Z" fill="#231F20"/>
<path d="M435.951 190.265C435.951 189.244 435.419 188.8 434.486 188.8H431.733V183.205H438.039C440.925 183.205 442.346 184.492 442.346 186.979V188.267C442.346 189.333 442.213 190.221 442.213 190.221H442.346C443.678 187.246 447.764 182.405 455.18 182.405C463.307 182.405 466.948 186.802 466.948 195.506V210.293C466.948 211.315 467.481 211.803 468.413 211.803H471.167V217.399H464.683C461.664 217.399 460.376 216.111 460.376 213.091V197.015C460.376 192.219 459.443 188.445 453.937 188.445C448.652 188.445 444.478 191.909 443.145 196.838C442.657 198.17 442.524 199.724 442.524 201.412V217.443H435.951V190.265Z" fill="#231F20"/>
<path d="M495.59 196.077H497.055V195.766C497.055 189.771 494.835 187.595 489.506 187.595C487.863 187.595 483.91 187.994 483.91 190.215V192.169H477.738V188.794C477.738 183.198 486.264 182.354 489.55 182.354C500.608 182.354 503.583 188.172 503.583 195.721V210.243C503.583 211.264 504.116 211.752 505.048 211.752H507.802V217.348H501.674C498.654 217.348 497.41 215.882 497.41 213.44C497.41 212.285 497.543 211.397 497.543 211.397H497.41C497.41 211.397 494.701 218.147 486.53 218.147C480.669 218.147 474.896 214.55 474.896 207.756C474.984 196.743 489.861 196.077 495.59 196.077ZM488.04 212.907C493.591 212.907 497.144 207.09 497.144 202.027V200.873H495.456C490.527 200.873 481.601 201.139 481.601 207.445C481.601 210.198 483.688 212.907 488.04 212.907Z" fill="#231F20"/>
<path d="M514.818 176.758C514.818 175.737 514.285 175.293 513.353 175.293H510.6V169.697H517.083C520.103 169.697 521.391 170.985 521.391 174.005V210.286C521.391 211.307 521.924 211.796 522.856 211.796H525.609V217.391H519.126C516.106 217.391 514.818 216.103 514.818 213.084V176.758Z" fill="#231F20"/>
<path d="M550.703 207.756C550.703 207.756 554.744 212.818 561.05 212.818C564.203 212.818 567 211.397 567 208.422C567 202.294 548.349 202.96 548.349 191.947C548.349 185.374 554.078 182.354 561.05 182.354C565.18 182.354 572.285 183.776 572.285 188.971V192.213H566.423V190.526C566.423 188.483 563.359 187.639 561.272 187.639C557.408 187.639 554.921 188.971 554.921 191.68C554.921 198.164 573.572 196.743 573.572 208.155C573.572 214.239 568.155 218.147 561.005 218.147C551.902 218.147 547.372 212.152 547.372 212.152L550.703 207.756Z" fill="#231F20"/>
<path d="M596.974 182.354C601.104 182.354 609.275 184.042 609.275 189.859V193.368H603.325V191.458C603.325 189.016 599.461 187.95 596.974 187.95C590.269 187.95 585.295 192.968 585.295 200.162C585.295 207.933 590.979 212.33 597.33 212.33C603.769 212.33 607.943 207.578 607.943 207.578L610.785 212.241C610.785 212.241 605.9 218.103 596.885 218.103C586.139 218.103 578.634 210.465 578.634 200.206C578.589 190.215 585.961 182.354 596.974 182.354Z" fill="#231F20"/>
<path d="M617.445 176.758C617.445 175.737 616.913 175.293 615.98 175.293H613.227V169.697H619.71C622.73 169.697 624.018 170.985 624.018 173.872V187.194C624.018 188.837 623.885 190.036 623.885 190.036H624.018C625.483 186.705 629.88 182.398 636.718 182.398C644.756 182.398 648.398 186.794 648.398 195.498V210.286C648.398 211.307 648.931 211.796 649.863 211.796H652.617V217.391H646.222C643.202 217.391 641.914 216.103 641.914 213.084V197.008C641.914 192.212 640.893 188.437 635.431 188.437C630.235 188.437 626.06 191.946 624.639 196.875C624.151 198.207 624.018 199.761 624.018 201.404V217.436H617.445V176.758Z" fill="#231F20"/>
<path d="M674.777 182.354C684.991 182.354 693.206 189.859 693.206 200.206C693.206 210.598 684.947 218.192 674.777 218.192C664.563 218.192 656.392 210.642 656.392 200.206C656.437 189.859 664.608 182.354 674.777 182.354ZM674.777 212.507C681.261 212.507 686.545 207.401 686.545 200.206C686.545 193.101 681.261 188.039 674.777 188.039C668.382 188.039 663.098 193.101 663.098 200.206C663.098 207.356 668.382 212.507 674.777 212.507Z" fill="#231F20"/>
<path d="M716.475 182.354C726.689 182.354 734.904 189.859 734.904 200.206C734.904 210.598 726.645 218.192 716.475 218.192C706.261 218.192 698.09 210.642 698.09 200.206C698.09 189.859 706.261 182.354 716.475 182.354ZM716.475 212.507C722.959 212.507 728.243 207.401 728.243 200.206C728.243 193.101 722.959 188.039 716.475 188.039C710.036 188.039 704.796 193.101 704.796 200.206C704.796 207.356 710.036 212.507 716.475 212.507Z" fill="#231F20"/>
<path d="M742.32 176.758C742.32 175.737 741.787 175.293 740.855 175.293H738.102V169.697H744.585C747.649 169.697 748.893 170.985 748.893 174.005V210.286C748.893 211.307 749.426 211.796 750.358 211.796H753.111V217.391H746.628C743.608 217.391 742.32 216.103 742.32 213.084V176.758Z" fill="#231F20"/>
<path d="M793.789 182.354C797.919 182.354 806.09 184.042 806.09 189.859V193.368H800.139V191.458C800.139 189.016 796.275 187.95 793.789 187.95C787.083 187.95 782.109 192.968 782.109 200.162C782.109 207.933 787.794 212.33 794.144 212.33C800.583 212.33 804.758 207.578 804.758 207.578L807.599 212.241C807.599 212.241 802.759 218.103 793.7 218.103C782.953 218.103 775.448 210.465 775.448 200.206C775.404 190.215 782.776 182.354 793.789 182.354Z" fill="#231F20"/>
<path d="M814.263 176.758C814.263 175.737 813.73 175.293 812.798 175.293H810.044V169.697H816.528C819.547 169.697 820.835 170.985 820.835 173.872V187.194C820.835 188.837 820.702 190.036 820.702 190.036H820.835C822.301 186.705 826.697 182.398 833.536 182.398C841.574 182.398 845.215 186.794 845.215 195.498V210.286C845.215 211.307 845.748 211.796 846.68 211.796H849.434V217.391H843.039C840.02 217.391 838.732 216.103 838.732 213.084V197.008C838.732 192.212 837.71 188.437 832.248 188.437C827.052 188.437 822.833 191.946 821.457 196.875C820.968 198.207 820.835 199.761 820.835 201.404V217.436H814.263V176.758Z" fill="#231F20"/>
<path d="M873.902 196.077H875.367V195.766C875.367 189.771 873.147 187.595 867.773 187.595C866.175 187.595 862.178 187.994 862.178 190.215V192.169H856.006V188.794C856.006 183.198 864.532 182.354 867.818 182.354C878.875 182.354 881.851 188.172 881.851 195.721V210.243C881.851 211.264 882.384 211.752 883.316 211.752H886.07V217.348H879.941C876.922 217.348 875.678 215.882 875.678 213.44C875.678 212.285 875.812 211.397 875.812 211.397H875.678C875.678 211.397 872.969 218.147 864.798 218.147C858.936 218.147 853.163 214.55 853.163 207.756C853.297 196.743 868.173 196.077 873.902 196.077ZM866.353 212.907C871.904 212.907 875.456 207.09 875.456 202.027V200.873H873.769C868.839 200.873 859.913 201.139 859.913 207.445C859.913 210.198 862.045 212.907 866.353 212.907Z" fill="#231F20"/>
<path d="M893.306 190.265C893.306 189.244 892.773 188.8 891.841 188.8H889.088V183.205H895.349C898.324 183.205 899.657 184.492 899.657 186.979V188.267C899.657 189.333 899.612 190.221 899.612 190.221H899.745C901.388 186.224 906.096 182.405 911.425 182.405C917.242 182.405 920.573 185.025 921.683 190.177H921.816C923.726 186.047 928.433 182.405 933.984 182.405C941.711 182.405 945.263 186.802 945.263 195.506V210.293C945.263 211.315 945.796 211.803 946.729 211.803H949.482V217.399H942.998C939.934 217.399 938.691 216.111 938.691 213.091V196.927C938.691 192.131 937.759 188.356 932.696 188.356C927.944 188.356 924.303 192.486 923.104 197.149C922.749 198.57 922.571 200.035 922.571 201.812V217.399H915.999V196.927C915.999 192.486 915.333 188.356 910.137 188.356C905.119 188.356 901.61 192.53 900.323 197.415C899.967 198.747 899.834 200.257 899.834 201.812V217.399H893.262V190.265H893.306Z" fill="#231F20"/>
<path d="M956.589 190.265C956.589 189.244 956.057 188.8 955.124 188.8H952.326V183.205H958.455C961.519 183.205 962.629 184.492 962.629 186.668C962.629 187.69 962.584 188.489 962.584 188.489H962.718C962.718 188.489 965.56 182.405 974.086 182.405C983.278 182.405 989.14 189.688 989.14 200.302C989.14 211.182 982.524 218.198 973.598 218.198C966.048 218.198 963.117 212.736 963.117 212.736H962.984C962.984 212.736 963.117 213.935 963.117 215.711V230.899H956.545V190.265H956.589ZM972.621 212.558C978.038 212.558 982.479 208.117 982.479 200.346C982.479 192.93 978.482 188.134 972.798 188.134C967.736 188.134 962.94 191.731 962.94 200.435C962.94 206.519 966.27 212.558 972.621 212.558Z" fill="#231F20"/>
<path d="M997.712 190.268C997.712 189.247 997.179 188.803 996.246 188.803H993.493V183.207H999.888C1002.91 183.207 1004.24 184.495 1004.24 187.515V210.296C1004.24 211.318 1004.77 211.806 1005.71 211.806H1008.46V217.402H1002.02C999 217.402 997.712 216.114 997.712 213.094V190.268ZM997.845 169.663H1003.71V176.502H997.845V169.663Z" fill="#231F20"/>
<path d="M1031.02 182.354C1041.23 182.354 1049.44 189.859 1049.44 200.206C1049.44 210.598 1041.19 218.192 1031.02 218.192C1020.8 218.192 1012.63 210.642 1012.63 200.206C1012.63 189.859 1020.85 182.354 1031.02 182.354ZM1031.02 212.507C1037.5 212.507 1042.78 207.401 1042.78 200.206C1042.78 193.101 1037.5 188.039 1031.02 188.039C1024.58 188.039 1019.34 193.101 1019.34 200.206C1019.34 207.356 1024.62 212.507 1031.02 212.507Z" fill="#231F20"/>
<path d="M1057.66 190.265C1057.66 189.244 1057.13 188.8 1056.19 188.8H1053.44V183.205H1059.7C1062.59 183.205 1064.01 184.492 1064.01 186.979V188.267C1064.01 189.333 1063.88 190.221 1063.88 190.221H1064.01C1065.34 187.246 1069.43 182.405 1076.84 182.405C1084.97 182.405 1088.61 186.802 1088.61 195.506V210.293C1088.61 211.315 1089.15 211.803 1090.12 211.803H1092.88V217.399H1086.39C1083.37 217.399 1082.04 216.111 1082.04 213.091V197.015C1082.04 192.219 1081.11 188.445 1075.65 188.445C1070.36 188.445 1066.19 191.909 1064.85 196.838C1064.37 198.17 1064.23 199.724 1064.23 201.412V217.443H1057.66V190.265Z" fill="#231F20"/>
<path d="M1099.41 207.756C1099.41 207.756 1103.45 212.818 1109.75 212.818C1112.95 212.818 1115.7 211.397 1115.7 208.422C1115.7 202.294 1097.05 202.96 1097.05 191.947C1097.05 185.374 1102.78 182.354 1109.75 182.354C1113.88 182.354 1120.99 183.776 1120.99 188.971V192.213H1115.13V190.526C1115.13 188.483 1112.11 187.639 1109.98 187.639C1106.11 187.639 1103.63 188.971 1103.63 191.68C1103.63 198.164 1122.28 196.743 1122.28 208.155C1122.28 214.239 1116.86 218.147 1109.71 218.147C1100.61 218.147 1096.08 212.152 1096.08 212.152L1099.41 207.756Z" fill="#231F20"/>
<path d="M1130.31 176.758C1130.31 175.737 1129.78 175.293 1128.85 175.293H1126.09V169.697H1132.58C1135.6 169.697 1136.88 170.985 1136.88 173.872V187.194C1136.88 188.837 1136.75 190.036 1136.75 190.036H1136.88C1138.35 186.705 1142.75 182.398 1149.58 182.398C1157.62 182.398 1161.26 186.794 1161.26 195.498V210.286C1161.26 211.307 1161.8 211.796 1162.73 211.796H1165.48V217.391H1159.09C1156.07 217.391 1154.78 216.103 1154.78 213.084V197.008C1154.78 192.212 1153.76 188.437 1148.3 188.437C1143.1 188.437 1138.88 191.946 1137.51 196.875C1137.02 198.207 1136.88 199.761 1136.88 201.404V217.436H1130.31V176.758Z" fill="#231F20"/>
<path d="M1172.94 190.268C1172.94 189.247 1172.41 188.803 1171.48 188.803H1168.72V183.207H1175.12C1178.14 183.207 1179.43 184.495 1179.43 187.515V210.296C1179.43 211.318 1179.96 211.806 1180.94 211.806H1183.69V217.402H1177.3C1174.28 217.402 1172.99 216.114 1172.99 213.094V190.268H1172.94ZM1173.08 169.663H1178.98V176.502H1173.08V169.663Z" fill="#231F20"/>
<path d="M1191.2 190.265C1191.2 189.244 1190.66 188.8 1189.73 188.8H1186.98V183.205H1193.11C1196.13 183.205 1197.28 184.492 1197.28 186.668C1197.28 187.69 1197.19 188.489 1197.19 188.489H1197.33C1197.33 188.489 1200.17 182.405 1208.69 182.405C1217.89 182.405 1223.75 189.688 1223.75 200.302C1223.75 211.182 1217.13 218.198 1208.21 218.198C1200.66 218.198 1197.72 212.736 1197.72 212.736H1197.59C1197.59 212.736 1197.72 213.935 1197.72 215.711V230.899H1191.15V190.265H1191.2ZM1207.18 212.558C1212.6 212.558 1217.04 208.117 1217.04 200.346C1217.04 192.93 1213.05 188.134 1207.41 188.134C1202.34 188.134 1197.55 191.731 1197.55 200.435C1197.55 206.519 1200.83 212.558 1207.18 212.558Z" fill="#231F20"/>
<path d="M588.137 18.8545H583.164V60.065H588.137V18.8545Z" fill="#FF0066"/>
<path d="M672 100.495L657 77.4951H646L640 87.4951L630.5 97.4951L651.5 120.495L672 100.495Z" fill="#FF0066"/>
<path d="M617.091 81.1885C617.18 81.6325 617.224 81.9434 617.224 81.9434C617.224 81.9434 617.535 81.9434 617.979 81.899C618.201 81.8546 618.468 81.8546 618.778 81.8102C618.912 81.7658 619.089 81.7658 619.267 81.7214C619.444 81.677 619.4 81.4993 619.533 81.4105C620.199 80.5668 621.087 79.4121 621.976 78.2575C622.864 77.1029 623.752 75.9927 624.418 75.1046C624.462 74.9714 624.684 74.9714 624.64 74.7937C624.64 74.6161 624.596 74.4829 624.596 74.3052C624.551 73.9944 624.551 73.7279 624.507 73.5059C624.418 73.0618 624.374 72.751 624.374 72.751C624.374 72.751 624.107 72.751 623.619 72.7954C623.397 72.8398 623.13 72.8398 622.819 72.8842C622.686 72.8842 622.509 72.9286 622.331 72.973C622.153 72.973 622.198 73.1951 622.065 73.2839C621.398 74.1276 620.51 75.2822 619.622 76.4368C618.734 77.5914 617.846 78.7016 617.18 79.5898C617.135 79.723 616.913 79.723 616.958 79.9006C616.958 80.0783 617.002 80.2115 617.002 80.3891C617.002 80.6556 617.046 80.922 617.091 81.1885Z" fill="#3B2AFF"/>
<path d="M629.7 75.1954C629.567 74.7958 629.478 74.5293 629.478 74.5293C629.478 74.5293 629.212 74.5293 628.768 74.5737C628.546 74.5737 628.279 74.6181 628.013 74.6625C627.88 74.6625 627.702 74.7069 627.569 74.7069C627.391 74.7069 627.48 74.8846 627.347 74.9734C626.814 75.7283 626.104 76.7497 625.393 77.7711C624.683 78.7925 623.972 79.8138 623.484 80.5688C623.439 80.702 623.261 80.702 623.306 80.8352C623.35 80.9684 623.395 81.1461 623.395 81.2793C623.439 81.5457 623.528 81.8122 623.572 81.9898C623.705 82.3895 623.794 82.6559 623.794 82.6559C623.794 82.6559 624.061 82.6559 624.505 82.6115C624.727 82.6115 624.993 82.5671 625.26 82.5227C625.393 82.5227 625.571 82.4783 625.704 82.4783C625.837 82.4339 625.793 82.2563 625.881 82.2119C626.414 81.4569 627.125 80.4355 627.791 79.4142C628.501 78.3928 629.212 77.3714 629.7 76.6165C629.745 76.4832 629.923 76.4832 629.878 76.35C629.834 76.1724 629.834 76.0392 629.789 75.9059C629.834 75.6395 629.789 75.4175 629.7 75.1954Z" fill="#3B2AFF"/>
<path d="M624.817 70.8933C624.861 71.2486 624.905 71.4706 624.905 71.4706C624.905 71.4706 625.127 71.4706 625.482 71.4706C625.66 71.4706 625.882 71.4262 626.104 71.4262C626.237 71.4262 626.326 71.3818 626.46 71.3818C626.593 71.3818 626.548 71.2042 626.637 71.1598C627.17 70.5381 627.881 69.6499 628.547 68.8062C629.257 67.9624 629.924 67.0743 630.456 66.4526C630.501 66.3637 630.634 66.3638 630.634 66.1861C630.634 66.0529 630.634 65.9197 630.589 65.8308C630.589 65.6088 630.545 65.3868 630.545 65.2091C630.501 64.8539 630.456 64.6318 630.456 64.6318C630.456 64.6318 630.234 64.6318 629.879 64.6763C629.701 64.6763 629.479 64.7207 629.257 64.7207C629.124 64.7207 629.035 64.7651 628.902 64.7651C628.769 64.7651 628.769 64.9427 628.68 64.9871C628.147 65.6532 627.437 66.497 626.77 67.3407C626.06 68.1845 625.394 69.0726 624.861 69.6943C624.817 69.7831 624.683 69.7832 624.683 69.9164C624.683 70.0496 624.683 70.1828 624.728 70.2716C624.772 70.4937 624.772 70.7157 624.817 70.8933Z" fill="#3B2AFF"/>
<path d="M675.796 73.2838C675.662 72.8841 675.529 72.6176 675.529 72.6176C675.529 72.6176 675.263 72.5732 674.819 72.5732C674.597 72.5732 674.374 72.5732 674.108 72.6176C673.975 72.6176 673.842 72.6177 673.664 72.6621C673.531 72.6621 673.575 72.8397 673.486 72.8841C672.998 73.5502 672.332 74.4828 671.71 75.4153C671.044 76.3479 670.422 77.2361 669.934 77.9466C669.934 78.0798 669.712 78.0354 669.756 78.213C669.801 78.3463 669.845 78.4795 669.845 78.6127C669.889 78.8792 669.978 79.1012 670.067 79.2788C670.2 79.6785 670.289 79.9005 670.289 79.9005C670.289 79.9005 670.556 79.9005 670.955 79.9005C671.177 79.9005 671.399 79.9005 671.666 79.8561C671.799 79.8561 671.932 79.8117 672.065 79.8117C672.243 79.8117 672.154 79.6341 672.287 79.5897C672.776 78.9236 673.442 77.991 674.064 77.0584C674.73 76.1259 675.352 75.2377 675.84 74.5272C675.884 74.394 676.062 74.4384 676.018 74.2607C675.973 74.1275 675.929 73.9943 675.884 73.8611C675.973 73.7279 675.884 73.5058 675.796 73.2838Z" fill="#3B2AFF"/>
<path d="M678.416 76.8101C678.416 76.9877 678.46 77.1653 678.46 77.2986C678.505 77.6094 678.549 77.9203 678.549 78.1423C678.638 78.6308 678.682 78.8972 678.682 78.8972C678.682 78.8972 678.993 78.8528 679.437 78.764C679.659 78.7196 679.97 78.6752 680.236 78.5864C680.414 78.542 680.547 78.4976 680.725 78.4532C680.902 78.4087 680.858 78.2311 680.991 78.0979C681.657 77.1209 682.59 75.8331 683.523 74.5009C684.455 73.213 685.343 71.8808 686.054 70.9038C686.098 70.7706 686.32 70.7262 686.276 70.5486C686.276 70.3709 686.232 70.1933 686.232 70.0601C686.187 69.7492 686.143 69.4384 686.143 69.2163C686.054 68.7278 685.965 68.417 685.965 68.417C685.965 68.417 685.654 68.4614 685.166 68.5502C684.944 68.5946 684.633 68.639 684.322 68.7278C684.189 68.7723 684.011 68.8167 683.833 68.8611C683.656 68.9055 683.7 69.1275 683.567 69.2163C682.901 70.1933 681.968 71.4811 681.036 72.8134C680.103 74.1012 679.215 75.4334 678.504 76.4104C678.593 76.588 678.371 76.6324 678.416 76.8101Z" fill="#3B2AFF"/>
<path d="M698.977 26.7956H729.352V13.6064H569.573V26.7956H609.54C616.023 27.9946 623.084 30.1262 625.571 33.1903C626.37 34.1673 626.415 34.9666 626.37 35.5439L626.193 37.0982C603.589 46.6903 587.691 69.1163 587.691 95.2281C587.691 129.999 615.979 158.332 650.795 158.332C685.566 158.332 713.898 130.044 713.898 95.2281C713.898 71.1146 700.309 50.1097 680.37 39.4962H680.637L680.193 35.8548C680.148 35.2775 680.148 34.5225 680.992 33.5012C683.745 30.1706 692.05 27.9058 698.977 26.7956ZM623.528 58.5028C633.298 58.5028 641.291 66.4518 641.291 76.2659C641.291 86.0356 633.342 94.029 623.528 94.029C613.758 94.029 605.765 86.08 605.765 76.2659C605.809 66.4518 613.758 58.5028 623.528 58.5028ZM650.395 97.5817C649.463 97.5817 648.708 98.3366 648.708 99.2692C648.708 100.157 649.418 100.868 650.262 100.957L649.24 117.832C649.107 117.61 648.974 117.343 648.885 117.121C647.42 114.412 645.599 111.748 643.601 109.217C640.314 105.087 636.584 101.445 633.298 98.603C640.98 95.1836 646.62 87.9452 647.686 79.2856H654.658C656.124 87.6787 661.941 94.6063 669.668 97.6705C666.115 100.513 661.897 104.376 658.211 108.817C657.19 110.06 656.168 111.348 655.28 112.636C654.347 113.924 653.503 115.3 652.749 116.633C652.393 117.299 652.038 117.92 651.727 118.587L650.617 100.957C651.416 100.823 652.038 100.157 652.038 99.3136C652.083 98.3366 651.328 97.5817 650.395 97.5817ZM706.304 95.1836C706.304 125.825 681.392 150.738 650.75 150.738C620.109 150.738 595.196 125.825 595.196 95.1836C595.196 87.9008 596.617 80.8843 599.193 74.4896C599.148 75.0669 599.104 75.6442 599.104 76.2215C599.104 89.6771 610.028 100.601 623.484 100.601C624.905 100.601 626.282 100.468 627.614 100.246C627.791 100.379 627.925 100.513 628.102 100.646C631.566 103.488 636.051 107.573 639.693 112.236C641.558 114.545 643.201 116.988 644.489 119.386C645.11 120.585 645.688 121.784 646.132 122.894C646.576 124.049 646.931 125.115 647.198 126.136C647.242 126.402 647.331 126.624 647.331 126.891C647.331 127.157 647.375 127.379 647.553 127.601C647.864 128.045 648.086 128.445 648.308 128.845C648.796 129.644 649.107 130.399 649.462 131.065C650.04 132.397 650.395 133.152 650.395 133.152C650.395 133.152 650.484 132.975 650.662 132.619C650.706 132.531 650.75 132.442 650.795 132.353C650.883 132.575 650.972 132.708 650.972 132.708C650.972 132.708 651.283 131.953 651.905 130.621C652.26 129.999 652.571 129.244 653.059 128.445C653.326 128.045 653.503 127.601 653.814 127.202C653.992 126.98 654.037 126.758 654.037 126.491C654.081 126.225 654.125 126.003 654.214 125.736C654.347 125.248 654.525 124.715 654.702 124.138C654.925 123.605 655.102 123.072 655.324 122.494C655.813 121.384 656.39 120.185 657.056 118.986C657.722 117.787 658.477 116.588 659.321 115.434C660.12 114.235 661.053 113.08 661.985 111.925C665.76 107.351 670.334 103.355 673.887 100.557C674.109 100.379 674.331 100.202 674.553 100.068C674.775 99.9353 674.997 99.802 675.174 99.58C675.263 99.4468 675.352 99.2692 675.441 99.1359C676.507 99.2692 677.528 99.358 678.638 99.358C691.605 99.358 702.263 89.1442 702.974 76.3547C705.15 82.261 706.304 88.5669 706.304 95.1836ZM696.446 74.9781C696.446 84.7478 688.497 92.7412 678.683 92.7412C668.913 92.7412 660.92 84.7922 660.92 74.9781C660.92 65.2084 668.869 57.2149 678.683 57.2149C688.497 57.2149 696.446 65.2084 696.446 74.9781ZM684.9 51.3975C682.901 50.8646 680.814 50.5982 678.683 50.5982C665.36 50.5982 654.481 61.3449 654.303 74.6672H647.864C647.02 61.9666 636.451 51.886 623.528 51.886C619.931 51.886 616.556 52.6853 613.492 54.062C618.333 49.6656 624.017 46.113 630.189 43.6261C630.9 43.5817 631.566 43.2265 632.099 42.9156C637.916 40.8284 644.222 39.6738 650.75 39.6738C663.628 39.6294 675.485 44.0258 684.9 51.3975Z" fill="#3B2AFF"/>
<path d="M664.829 270.072H661.009V274.025H664.829V270.072Z" fill="#231F20"/>
<path d="M665.494 274.673H660.343V269.344H665.494V274.673ZM661.72 273.296H664.118V270.72H661.72V273.296Z" fill="#231F20"/>
<path d="M675.399 270.072H671.624V274.025H675.399V270.072Z" fill="#231F20"/>
<path d="M676.109 274.673H670.957V269.344H676.109V274.673ZM672.29 273.296H674.732V270.72H672.334V273.296H672.29Z" fill="#231F20"/>
<path d="M685.968 270.072H682.194V274.025H685.968V270.072Z" fill="#231F20"/>
<path d="M686.678 274.673H681.527V269.344H686.678V274.673ZM682.903 273.296H685.301V270.72H682.903V273.296Z" fill="#231F20"/>
<path d="M696.58 270.072H692.806V274.025H696.58V270.072Z" fill="#231F20"/>
<path d="M697.293 274.673H692.141V269.344H697.293V274.673ZM693.474 273.296H695.872V270.72H693.474V273.296Z" fill="#231F20"/>
<path d="M707.15 270.072H703.375V274.025H707.15V270.072Z" fill="#231F20"/>
<path d="M707.86 274.673H702.708V269.344H707.86V274.673ZM704.085 273.296H706.483V270.72H704.085V273.296Z" fill="#231F20"/>
<path d="M712.834 270.911H716.076V242.402H712.834V239.382H722.737V242.402H719.451V270.911H722.737V273.976H712.834V270.911Z" fill="#231F20"/>
<path d="M723.404 274.694H712.125V270.254H715.367V243.12H712.125V238.68H723.404V243.12H720.118V270.254H723.404V274.694ZM713.546 273.318H722.072V271.63H718.786V241.744H722.072V240.056H713.546V241.744H716.787V271.63H713.546V273.318Z" fill="#231F20"/>
<path d="M729.311 253.191C729.311 252.48 728.911 252.125 728.245 252.125H726.158V249.238H729.622C731.709 249.238 732.641 250.127 732.641 251.992V253.146C732.641 254.123 732.553 254.923 732.553 254.923H732.641C733.53 252.658 736.683 248.661 742.5 248.661C748.673 248.661 750.804 252.169 750.804 258.253V270.021C750.804 270.776 751.204 271.087 751.87 271.087H753.957V273.974H750.449C748.317 273.974 747.429 273.085 747.429 270.954V259.097C747.429 255.189 746.852 251.77 742.056 251.77C737.837 251.77 734.196 254.656 733.041 258.742C732.73 259.763 732.641 260.918 732.641 262.072V273.929H729.311V253.191Z" fill="#231F20"/>
<path d="M754.578 274.681H750.404C747.917 274.681 746.718 273.482 746.718 270.995V259.139C746.718 254.92 745.963 252.477 742.055 252.477C738.192 252.477 734.773 255.142 733.707 258.961C733.441 259.849 733.352 260.826 733.352 262.114V274.681H728.644V253.232C728.644 252.921 728.556 252.833 728.245 252.833H725.491V248.569H729.621C732.685 248.569 733.307 250.435 733.307 252.033V252.433C734.95 250.301 737.97 247.992 742.455 247.992C748.584 247.992 751.47 251.278 751.47 258.295V270.063C751.47 270.374 751.514 270.463 751.87 270.463H754.623V274.681H754.578ZM742.055 251.101C747.384 251.101 748.095 254.964 748.095 259.139V270.995C748.095 272.727 748.672 273.305 750.404 273.305H753.202V271.795H751.825C750.715 271.795 750.049 271.129 750.049 270.018V258.25C750.049 251.989 747.784 249.324 742.411 249.324C736.904 249.324 733.973 253.143 733.174 255.142L732.996 255.586H731.753V254.831C731.753 254.831 731.842 254.076 731.842 253.143V251.989C731.842 250.745 731.442 249.902 729.533 249.902H726.779V251.412H728.156C729.222 251.412 729.932 252.122 729.932 253.188V273.26H731.886V262.069C731.886 260.648 732.019 259.538 732.33 258.517C733.574 254.165 737.57 251.101 742.055 251.101Z" fill="#231F20"/>
<path d="M758.307 267.919C758.307 267.919 761.061 271.649 765.946 271.649C768.699 271.649 771.186 270.317 771.186 267.697C771.186 262.279 757.286 263.256 757.286 255.307C757.286 250.822 761.15 248.602 766.079 248.602C768.61 248.602 773.628 249.579 773.628 253.087V255.218H770.475V254.019C770.475 252.199 767.811 251.488 766.212 251.488C762.748 251.488 760.705 252.687 760.705 255.085C760.705 260.636 774.605 259.348 774.605 267.608C774.605 271.738 770.875 274.536 765.946 274.536C759.506 274.536 756.442 270.228 756.442 270.228L758.307 267.919Z" fill="#231F20"/>
<path d="M765.902 275.244C759.152 275.244 755.954 270.804 755.821 270.626L755.51 270.182L758.308 266.807L758.841 267.517C758.841 267.562 761.461 270.981 765.902 270.981C768.166 270.981 770.431 269.96 770.431 267.739C770.431 265.741 767.855 264.72 764.925 263.521C760.972 261.966 756.531 260.146 756.531 255.305C756.531 250.731 760.173 247.934 766.035 247.934C769.365 247.934 774.25 249.31 774.25 253.085V255.883H769.721V254.017C769.721 252.818 767.634 252.197 766.124 252.197C763.903 252.197 761.283 252.685 761.283 255.128C761.283 257.17 763.814 258.192 766.79 259.346C770.52 260.812 775.183 262.677 775.183 267.651C775.227 272.047 771.319 275.244 765.902 275.244ZM757.287 270.226C758.219 271.248 760.972 273.868 765.902 273.868C770.52 273.868 773.895 271.248 773.895 267.606C773.895 263.565 770.076 262.055 766.39 260.59C763.104 259.302 760.04 258.059 760.04 255.083C760.04 252.374 762.304 250.82 766.257 250.82C768.166 250.82 771.23 251.664 771.23 254.017V254.506H773.007V253.085C773.007 249.976 767.944 249.31 766.168 249.31C761.106 249.31 758.041 251.575 758.041 255.305C758.041 259.213 761.86 260.767 765.546 262.233C768.833 263.565 771.897 264.809 771.897 267.695C771.897 270.448 769.543 272.313 765.99 272.313C762.082 272.313 759.463 270.093 758.397 268.938L757.287 270.226Z" fill="#231F20"/>
<path d="M780.913 253.176C780.913 252.465 780.513 252.11 779.847 252.11H777.804V249.179H781.179C783.311 249.179 784.155 250.067 784.155 251.799C784.155 252.776 784.11 253.486 784.11 253.486H784.199C784.199 253.486 786.153 248.602 792.725 248.602C799.386 248.602 803.516 253.931 803.516 261.613C803.516 269.429 798.854 274.58 792.459 274.58C786.419 274.58 784.332 269.917 784.332 269.917H784.243C784.243 269.917 784.332 270.805 784.332 272.093V283.861H780.957V253.176H780.913ZM792.059 271.605C796.455 271.605 800.052 267.919 800.052 261.613C800.052 255.574 796.855 251.666 792.237 251.666C788.107 251.666 784.199 254.641 784.199 261.657C784.155 266.631 786.863 271.605 792.059 271.605Z" fill="#231F20"/>
<path d="M784.953 284.491H780.245V253.184C780.245 252.873 780.156 252.784 779.846 252.784H777.092V248.521H781.178C783.398 248.521 784.597 249.454 784.775 251.274C786.063 249.765 788.505 247.899 792.679 247.899C799.563 247.899 804.137 253.406 804.137 261.577C804.137 269.615 799.296 275.21 792.369 275.21C788.55 275.21 786.196 273.478 784.908 272.057V284.491H784.953ZM781.578 283.159H783.576V272.057C783.576 270.858 783.487 269.97 783.487 269.97L783.398 269.215H784.597L784.864 269.615C784.952 269.792 786.862 273.878 792.369 273.878C798.497 273.878 802.76 268.816 802.76 261.621C802.76 254.161 798.808 249.32 792.679 249.32C786.684 249.32 784.864 253.584 784.775 253.761L784.597 254.205H783.398L783.354 253.45C783.354 253.45 783.398 252.784 783.398 251.807C783.398 250.608 782.999 249.898 781.134 249.898H778.424V251.408H779.801C780.867 251.408 781.578 252.118 781.578 253.184V283.159ZM792.058 272.279C786.418 272.279 783.487 266.95 783.487 261.666C783.487 253.761 788.194 250.964 792.191 250.964C797.298 250.964 800.717 255.227 800.717 261.621C800.717 267.927 797.12 272.279 792.058 272.279ZM792.191 252.34C788.638 252.34 784.864 254.783 784.864 261.666C784.864 266.284 787.35 270.903 792.058 270.903C796.365 270.903 799.341 267.084 799.341 261.577C799.341 255.982 796.543 252.34 792.191 252.34Z" fill="#231F20"/>
<path d="M810.088 253.193C810.088 252.482 809.688 252.127 809.022 252.127H806.935V249.24H810.443C812.575 249.24 813.463 250.129 813.463 252.26V270.023C813.463 270.778 813.862 271.089 814.528 271.089H816.616V273.976H813.107C810.976 273.976 810.088 273.087 810.088 270.956V253.193ZM809.955 239.382H813.196V243.601H809.955V239.382Z" fill="#231F20"/>
<path d="M817.239 274.684H813.065C810.578 274.684 809.379 273.485 809.379 270.998V253.235C809.379 252.924 809.29 252.836 808.979 252.836H806.226V248.572H810.4C812.887 248.572 814.086 249.771 814.086 252.258V270.021C814.086 270.332 814.13 270.421 814.486 270.421H817.239V274.684ZM807.602 251.415H808.979C810.045 251.415 810.755 252.125 810.755 253.191V270.954C810.755 272.686 811.333 273.263 813.065 273.263H815.862V271.753H814.486C813.375 271.753 812.709 271.087 812.709 269.977V252.214C812.709 250.482 812.132 249.905 810.4 249.905H807.602V251.415ZM813.909 244.309H809.29V238.714H813.909V244.309ZM810.667 242.888H812.532V240.046H810.667V242.888Z" fill="#231F20"/>
<path d="M822.166 253.185C822.166 252.474 821.767 252.119 821.101 252.119H819.013V249.232H822.477C824.52 249.232 825.497 250.076 825.497 252.03V253.717C825.497 254.739 825.408 255.583 825.408 255.583H825.497C826.696 251.852 829.449 248.966 833.313 248.966C833.979 248.966 834.645 249.099 834.645 249.099V252.385C834.645 252.385 834.068 252.296 833.402 252.296C829.893 252.296 827.273 255.05 826.207 258.691C825.719 260.29 825.542 261.933 825.542 263.532V273.967H822.166V253.185Z" fill="#231F20"/>
<path d="M826.207 274.682H821.499V253.233C821.499 252.922 821.411 252.833 821.1 252.833H818.347V248.57H822.477C824.919 248.57 826.162 249.724 826.162 252.078V252.478C827.85 249.858 830.337 248.348 833.312 248.348C834.067 248.348 834.777 248.525 834.777 248.525L835.31 248.659V253.321L834.511 253.188C834.511 253.188 833.978 253.099 833.401 253.099C830.47 253.099 827.939 255.364 826.873 259.006C826.429 260.427 826.207 261.981 826.207 263.624V274.682ZM822.876 273.305H824.83V263.535C824.83 261.714 825.096 260.027 825.585 258.517C826.828 254.298 829.848 251.634 833.445 251.634C833.623 251.634 833.8 251.634 833.978 251.634V249.68C833.8 249.68 833.578 249.635 833.356 249.635C830.07 249.635 827.406 251.9 826.162 255.764L826.029 256.252H824.741V255.497C824.741 255.497 824.83 254.698 824.83 253.721V252.034C824.83 250.479 824.209 249.902 822.521 249.902H819.767V251.412H821.144C822.21 251.412 822.921 252.122 822.921 253.188V273.305H822.876Z" fill="#231F20"/>
<path d="M840.242 253.193C840.242 252.482 839.842 252.127 839.176 252.127H837.089V249.24H840.597C842.728 249.24 843.617 250.129 843.617 252.26V270.023C843.617 270.778 844.016 271.089 844.683 271.089H846.77V273.976H843.261C841.13 273.976 840.242 273.087 840.242 270.956V253.193ZM840.153 239.382H843.395V243.601H840.153V239.382Z" fill="#231F20"/>
<path d="M847.435 274.684H843.261C840.774 274.684 839.575 273.485 839.575 270.998V253.235C839.575 252.924 839.486 252.836 839.176 252.836H836.422V248.572H840.596C843.083 248.572 844.282 249.771 844.282 252.258V270.021C844.282 270.332 844.327 270.421 844.682 270.421H847.435V274.684ZM837.799 251.415H839.176C840.241 251.415 840.952 252.125 840.952 253.191V270.954C840.952 272.686 841.529 273.263 843.261 273.263H846.059V271.753H844.682C843.572 271.753 842.906 271.087 842.906 269.977V252.214C842.906 250.482 842.328 249.905 840.596 249.905H837.799V251.415ZM844.105 244.309H839.486V238.714H844.105V244.309ZM840.863 242.888H842.728V240.046H840.863V242.888Z" fill="#231F20"/>
<path d="M852.363 253.191C852.363 252.48 851.963 252.125 851.297 252.125H849.21V249.238H852.674C854.761 249.238 855.693 250.127 855.693 251.992V253.146C855.693 254.123 855.604 254.923 855.604 254.923H855.693C856.581 252.658 859.734 248.661 865.552 248.661C871.724 248.661 873.9 252.169 873.9 258.253V270.021C873.9 270.776 874.3 271.087 874.966 271.087H877.009V273.974H873.501C871.369 273.974 870.481 273.085 870.481 270.954V259.097C870.481 255.189 869.904 251.77 865.108 251.77C860.889 251.77 857.248 254.656 856.093 258.742C855.782 259.763 855.693 260.918 855.693 262.072V273.929H852.363V253.191Z" fill="#231F20"/>
<path d="M877.677 274.681H873.502C871.015 274.681 869.816 273.482 869.816 270.995V259.139C869.816 254.92 869.061 252.477 865.154 252.477C861.29 252.477 857.871 255.142 856.805 258.961C856.538 259.849 856.405 260.826 856.405 262.114V274.681H851.698V253.232C851.698 252.921 851.609 252.833 851.298 252.833H848.545V248.569H852.675C855.739 248.569 856.361 250.435 856.361 252.033V252.433C858.004 250.301 861.024 247.992 865.509 247.992C871.637 247.992 874.524 251.278 874.524 258.295V270.063C874.524 270.374 874.568 270.463 874.923 270.463H877.677V274.681ZM865.109 251.101C870.438 251.101 871.148 254.964 871.148 259.139V270.995C871.148 272.727 871.726 273.305 873.458 273.305H876.255V271.795H874.879C873.769 271.795 873.102 271.129 873.102 270.018V258.25C873.102 251.989 870.838 249.324 865.464 249.324C860.002 249.324 857.027 253.143 856.272 255.142L856.094 255.586H854.851V254.831C854.851 254.831 854.94 254.076 854.94 253.143V251.989C854.94 250.745 854.54 249.902 852.63 249.902H849.877V251.412H851.254C852.32 251.412 853.03 252.122 853.03 253.188V273.26H855.028V262.069C855.028 260.648 855.162 259.538 855.428 258.517C856.672 254.165 860.668 251.101 865.109 251.101Z" fill="#231F20"/>
<path d="M890.819 248.602C897.48 248.602 899.035 252.82 899.035 252.82H899.124V251.888C899.124 250.111 899.923 249.179 901.921 249.179H905.341V252.065H903.342C902.676 252.065 902.232 252.421 902.232 253.131V273.337C902.232 281.197 896.415 284.261 890.331 284.261C887.533 284.261 884.691 283.506 882.249 282.307L883.537 279.509C883.537 279.509 886.601 281.241 890.242 281.241C895.083 281.241 898.902 278.977 898.902 273.47V271.294C898.902 270.361 898.946 269.518 898.946 269.518H898.857C897.392 272.227 894.905 273.781 891.086 273.781C884.425 273.781 880.073 268.496 880.073 261.08C880.117 253.664 884.202 248.602 890.819 248.602ZM898.99 261.125C898.99 253.886 895.527 251.666 891.175 251.666C886.334 251.666 883.537 255.174 883.537 261.08C883.537 266.986 886.734 270.805 891.619 270.805C895.571 270.805 898.99 268.407 898.99 261.125Z" fill="#231F20"/>
<path d="M890.378 285.014C887.536 285.014 884.56 284.304 881.985 282.971L881.407 282.661L883.273 278.575L883.939 278.93C883.983 278.93 886.914 280.573 890.289 280.573C893.264 280.573 898.282 279.641 898.282 273.468V271.647C896.595 273.557 894.197 274.534 891.133 274.534C884.249 274.534 879.409 269.027 879.409 261.123C879.409 253.085 883.894 247.934 890.822 247.934C895.04 247.934 897.35 249.532 898.549 250.864C898.86 249.31 900.014 248.511 901.924 248.511H906.054V252.774H903.345C903.034 252.774 902.945 252.818 902.945 253.174V273.379C902.99 281.95 896.506 285.014 890.378 285.014ZM883.228 281.994C885.493 283.016 888.024 283.593 890.422 283.593C893.042 283.593 901.657 282.838 901.657 273.335V253.129C901.657 252.019 902.323 251.353 903.434 251.353H904.766V249.843H902.013C900.458 249.843 899.881 250.376 899.881 251.886V253.529H898.726L898.46 253.085C898.416 252.952 896.95 249.31 890.866 249.31C884.782 249.31 880.83 253.929 880.83 261.123C880.83 268.317 885.004 273.157 891.177 273.157C894.552 273.157 896.906 271.869 898.371 269.249L898.593 268.894H899.748L899.792 269.605C899.792 269.605 899.748 270.448 899.748 271.337V273.513C899.748 278.797 896.24 281.994 890.378 281.994C887.58 281.994 885.138 281.062 883.983 280.529L883.228 281.994ZM891.621 271.514C886.381 271.514 882.873 267.295 882.873 261.078C882.873 254.772 885.981 250.998 891.177 250.998C895.041 250.998 899.703 252.774 899.703 261.123C899.703 270.138 894.641 271.514 891.621 271.514ZM891.177 252.33C886.781 252.33 884.249 255.527 884.249 261.034C884.249 266.54 887.136 270.093 891.621 270.093C896.018 270.093 898.327 266.985 898.327 261.078C898.327 255.216 895.973 252.33 891.177 252.33Z" fill="#231F20"/>
<path d="M931.053 258.907L921.817 243.675C921.195 242.654 920.529 242.387 919.507 242.387H918.708V239.323H920.04C922.394 239.323 923.282 239.679 924.792 242.077L930.654 251.891C931.72 253.711 932.785 255.799 932.785 255.799H932.874C932.874 255.799 933.895 253.711 935.006 251.891L940.868 242.077C942.333 239.679 943.221 239.323 945.575 239.323H946.907V242.387H946.108C945.131 242.387 944.42 242.609 943.843 243.675L934.517 258.907V273.961H931.053V258.907Z" fill="#231F20"/>
<path d="M935.23 274.694H930.39V259.152L921.242 244.097C920.753 243.298 920.309 243.165 919.51 243.165H918.044V238.724H920.042C922.618 238.724 923.728 239.168 925.371 241.788L931.233 251.602C931.811 252.579 932.388 253.69 932.787 254.444C933.187 253.69 933.764 252.624 934.386 251.602L940.248 241.788C941.891 239.168 943.001 238.68 945.577 238.68H947.575V243.12H946.11C945.355 243.12 944.911 243.254 944.422 244.053L935.186 259.107V274.694H935.23ZM931.766 273.318H933.853V258.752L943.268 243.387C944.067 241.966 945.177 241.788 946.11 241.788H946.199V240.101H945.577C943.401 240.101 942.779 240.323 941.447 242.543L935.585 252.357C934.519 254.134 933.498 256.176 933.498 256.221L933.32 256.62H932.477L932.166 256.221C932.166 256.221 931.144 254.134 930.079 252.357L924.217 242.543C922.885 240.367 922.218 240.101 920.087 240.101H919.465V241.788H919.554C920.709 241.788 921.641 242.055 922.441 243.387L931.811 258.752V273.318H931.766Z" fill="#231F20"/>
<path d="M958.941 248.602C966.179 248.602 972.041 254.108 972.041 261.435C972.041 268.94 966.18 274.536 958.985 274.536C951.747 274.536 945.885 268.94 945.885 261.435C945.885 254.108 951.747 248.602 958.941 248.602ZM958.985 271.56C964.27 271.56 968.577 267.208 968.577 261.48C968.577 255.884 964.226 251.666 958.985 251.666C953.656 251.666 949.349 255.84 949.349 261.48C949.349 267.208 953.701 271.56 958.985 271.56Z" fill="#231F20"/>
<path d="M958.987 275.244C951.26 275.244 945.176 269.205 945.176 261.478C945.176 253.884 951.215 247.934 958.898 247.934C966.625 247.934 972.664 253.884 972.664 261.478C972.753 269.205 966.714 275.244 958.987 275.244ZM958.942 249.31C952.015 249.31 946.597 254.639 946.597 261.478C946.597 268.45 952.059 273.912 959.031 273.912C965.959 273.912 971.376 268.45 971.376 261.478C971.376 254.639 965.914 249.31 958.942 249.31ZM958.987 272.225C953.169 272.225 948.64 267.473 948.64 261.434C948.64 255.572 953.169 250.953 958.987 250.953C964.76 250.953 969.289 255.572 969.289 261.434C969.289 267.517 964.76 272.225 958.987 272.225ZM958.987 252.33C953.969 252.33 950.016 256.327 950.016 261.434C950.016 266.718 953.969 270.848 958.987 270.848C963.96 270.848 967.913 266.718 967.913 261.434C967.913 256.327 964.005 252.33 958.987 252.33Z" fill="#231F20"/>
<path d="M978.214 253.19C978.214 252.479 977.814 252.124 977.148 252.124H975.061V249.237H978.569C980.701 249.237 981.589 250.125 981.589 252.124V264.114C981.589 268.022 982.255 271.441 987.007 271.441C992.647 271.441 996.11 266.468 996.11 261.094V249.237H999.441V270.02C999.441 270.775 999.841 271.086 1000.51 271.086H1002.59V273.972H999.175C997.132 273.972 996.199 273.084 996.199 271.219V270.109C996.199 269.132 996.288 268.333 996.288 268.333H996.199C995.222 270.731 991.98 274.594 986.563 274.594C980.701 274.594 978.258 271.441 978.258 265.002V253.19H978.214Z" fill="#231F20"/>
<path d="M986.521 275.251C980.348 275.251 977.506 271.965 977.506 264.949V253.18C977.506 252.87 977.417 252.781 977.106 252.781H974.353V248.518H978.527C981.014 248.518 982.213 249.672 982.213 252.115V264.105C982.213 268.323 982.968 270.766 986.92 270.766C992.382 270.766 995.358 265.792 995.358 261.129V248.562H1000.06V270.011C1000.06 270.366 1000.11 270.411 1000.46 270.411H1003.22V274.674H999.132C996.068 274.674 995.446 272.809 995.446 271.21V270.81C993.848 272.942 990.873 275.251 986.521 275.251ZM975.774 251.404H977.15C978.216 251.404 978.927 252.115 978.927 253.18V264.949C978.927 271.21 981.191 273.874 986.565 273.874C991.805 273.874 994.736 270.055 995.58 268.057L995.757 267.613H997.001V268.368C997.001 268.368 996.912 269.123 996.912 270.055V271.166C996.912 272.409 997.312 273.253 999.221 273.253H1001.93V271.743H1000.55C999.443 271.743 998.777 271.077 998.777 269.967V249.894H996.823V261.085C996.823 266.414 993.404 272.098 987.009 272.098C980.925 272.098 980.925 266.68 980.925 264.06V252.07C980.925 250.427 980.348 249.85 978.616 249.85H975.818V251.404H975.774Z" fill="#231F20"/>
<path d="M1008.01 253.191C1008.01 252.48 1007.61 252.125 1006.95 252.125H1004.91V249.238H1008.32C1010.41 249.238 1011.34 250.127 1011.34 251.992V253.146C1011.34 254.123 1011.26 254.923 1011.26 254.923H1011.34C1012.23 252.658 1015.39 248.661 1021.2 248.661C1027.38 248.661 1029.51 252.169 1029.51 258.253V270.021C1029.51 270.776 1029.91 271.087 1030.57 271.087H1032.66V273.974H1029.15C1027.02 273.974 1026.13 273.085 1026.13 270.954V259.097C1026.13 255.189 1025.55 251.77 1020.76 251.77C1016.5 251.77 1012.9 254.656 1011.74 258.742C1011.43 259.763 1011.34 260.918 1011.34 262.072V273.929H1007.97V253.191H1008.01Z" fill="#231F20"/>
<path d="M1033.33 274.681H1029.15C1026.67 274.681 1025.47 273.482 1025.47 270.995V259.139C1025.47 254.92 1024.71 252.477 1020.8 252.477C1016.94 252.477 1013.52 255.142 1012.46 258.961C1012.19 259.849 1012.1 260.826 1012.1 262.114V274.681H1007.39V253.232C1007.39 252.921 1007.3 252.833 1006.99 252.833H1004.24V248.569H1008.37C1011.43 248.569 1012.06 250.435 1012.06 252.033V252.433C1013.7 250.301 1016.72 247.992 1021.2 247.992C1027.33 247.992 1030.22 251.278 1030.22 258.295V270.063C1030.22 270.374 1030.26 270.463 1030.62 270.463H1033.37V274.681H1033.33ZM1020.76 251.101C1026.09 251.101 1026.8 254.964 1026.8 259.139V270.995C1026.8 272.727 1027.38 273.305 1029.11 273.305H1031.91V271.795H1030.53C1029.42 271.795 1028.75 271.129 1028.75 270.018V258.25C1028.75 251.989 1026.49 249.324 1021.12 249.324C1015.65 249.324 1012.68 253.143 1011.92 255.142L1011.75 255.586H1010.5V254.831C1010.5 254.831 1010.59 254.076 1010.59 253.143V251.989C1010.59 250.745 1010.19 249.902 1008.28 249.902H1005.53V251.412H1006.9C1007.97 251.412 1008.68 252.122 1008.68 253.188V273.26H1010.64V262.069C1010.64 260.648 1010.77 259.538 1011.08 258.517C1012.32 254.165 1016.32 251.101 1020.76 251.101Z" fill="#231F20"/>
<path d="M1046.47 248.602C1053.13 248.602 1054.69 252.82 1054.69 252.82H1054.77V251.888C1054.77 250.111 1055.57 249.179 1057.57 249.179H1061.04V252.065H1059.04C1058.37 252.065 1057.97 252.421 1057.97 253.131V273.337C1057.97 281.197 1052.15 284.261 1046.03 284.261C1043.23 284.261 1040.39 283.506 1037.94 282.307L1039.23 279.509C1039.23 279.509 1042.3 281.241 1045.94 281.241C1050.78 281.241 1054.6 278.977 1054.6 273.47V271.294C1054.6 270.361 1054.64 269.518 1054.64 269.518H1054.55C1053.09 272.227 1050.6 273.781 1046.78 273.781C1040.12 273.781 1035.72 268.496 1035.72 261.08C1035.72 253.664 1039.81 248.602 1046.47 248.602ZM1054.64 261.125C1054.64 253.886 1051.18 251.666 1046.83 251.666C1041.98 251.666 1039.19 255.174 1039.19 261.08C1039.19 266.986 1042.38 270.805 1047.27 270.805C1051.22 270.805 1054.64 268.407 1054.64 261.125Z" fill="#231F20"/>
<path d="M1046.02 285.014C1043.18 285.014 1040.21 284.304 1037.63 282.971L1037.05 282.661L1038.92 278.575L1039.59 278.93C1039.63 278.93 1042.52 280.573 1045.94 280.573C1048.91 280.573 1053.93 279.641 1053.93 273.468V271.647C1052.24 273.557 1049.84 274.534 1046.78 274.534C1039.85 274.534 1035.06 269.027 1035.06 261.123C1035.06 253.085 1039.54 247.934 1046.47 247.934C1050.69 247.934 1053 249.532 1054.2 250.864C1054.51 249.31 1055.66 248.511 1057.57 248.511H1061.7V252.774H1058.99C1058.64 252.774 1058.59 252.818 1058.59 253.174V273.379C1058.64 281.95 1052.11 285.014 1046.02 285.014ZM1038.87 281.994C1041.14 283.016 1043.63 283.593 1046.02 283.593C1048.64 283.593 1057.26 282.838 1057.26 273.335V253.129C1057.26 252.019 1057.93 251.353 1059.04 251.353H1060.37V249.843H1057.61C1056.06 249.843 1055.48 250.376 1055.48 251.886V253.529H1054.33L1054.06 253.085C1054.02 252.952 1052.51 249.31 1046.47 249.31C1040.38 249.31 1036.43 253.929 1036.43 261.123C1036.43 268.317 1040.61 273.157 1046.78 273.157C1050.15 273.157 1052.51 271.869 1053.97 269.249L1054.15 268.894H1055.31L1055.35 269.605C1055.35 269.605 1055.31 270.448 1055.31 271.337V273.513C1055.31 278.797 1051.8 281.994 1045.94 281.994C1043.14 281.994 1040.7 281.062 1039.59 280.529L1038.87 281.994ZM1047.27 271.514C1042.03 271.514 1038.52 267.295 1038.52 261.078C1038.52 254.772 1041.63 250.998 1046.82 250.998C1050.73 250.998 1055.35 252.774 1055.35 261.123C1055.35 270.138 1050.29 271.514 1047.27 271.514ZM1046.82 252.33C1042.43 252.33 1039.9 255.527 1039.9 261.034C1039.9 266.54 1042.78 270.093 1047.27 270.093C1051.66 270.093 1053.97 266.985 1053.97 261.078C1053.97 255.216 1051.62 252.33 1046.82 252.33Z" fill="#231F20"/>
<path d="M1079.86 253.191C1079.86 252.48 1079.46 252.125 1078.8 252.125H1076.71V249.238H1080.13C1082.22 249.238 1083.15 250.127 1083.15 251.992V253.146C1083.15 254.123 1083.06 254.923 1083.06 254.923H1083.15C1084.39 251.592 1088.3 248.661 1092.12 248.661C1096.69 248.661 1099.05 250.793 1099.8 254.878H1099.89C1101.22 251.548 1104.82 248.661 1109 248.661C1114.99 248.661 1117.21 252.169 1117.21 258.253V270.021C1117.21 270.776 1117.61 271.087 1118.28 271.087H1120.36V273.974H1116.86C1114.72 273.974 1113.84 273.085 1113.84 270.954V259.053C1113.84 255.011 1112.99 251.681 1108.46 251.681C1104.73 251.681 1101.62 255.011 1100.65 258.653C1100.29 259.719 1100.2 260.918 1100.2 262.25V273.974H1096.87V259.053C1096.87 255.322 1096.34 251.681 1091.63 251.681C1087.59 251.681 1084.57 255.189 1083.55 258.964C1083.24 259.985 1083.15 261.14 1083.15 262.25V273.974H1079.82V253.191H1079.86Z" fill="#231F20"/>
<path d="M1121.08 274.681H1116.9C1114.41 274.681 1113.22 273.482 1113.22 270.995V259.094C1113.22 254.254 1111.88 252.389 1108.55 252.389C1105.04 252.389 1102.25 255.719 1101.36 258.872C1101.05 259.805 1100.96 260.826 1100.96 262.291V274.681H1096.25V259.094C1096.25 254.964 1095.5 252.389 1091.72 252.389C1087.9 252.389 1085.19 255.897 1084.31 259.183C1084.04 260.071 1083.95 261.048 1083.95 262.291V274.681H1079.24V253.232C1079.24 252.921 1079.15 252.833 1078.84 252.833H1076.09V248.569H1080.22C1083.28 248.569 1083.91 250.435 1083.91 252.033V252.3C1085.86 249.768 1089.1 247.992 1092.17 247.992C1096.34 247.992 1098.92 249.635 1100.07 253.055C1101.98 249.991 1105.44 247.992 1109.04 247.992C1115.04 247.992 1117.97 251.367 1117.97 258.295V270.063C1117.97 270.374 1118.01 270.463 1118.37 270.463H1121.12V274.681H1121.08ZM1108.55 250.968C1113.93 250.968 1114.59 255.275 1114.59 259.05V270.951C1114.59 272.683 1115.17 273.26 1116.9 273.26H1119.7V271.75H1118.32C1117.26 271.75 1116.55 271.084 1116.55 269.974V258.206C1116.55 252.033 1114.24 249.28 1109 249.28C1105.36 249.28 1101.89 251.634 1100.51 255.053L1100.34 255.497H1099.32L1099.09 254.92C1098.38 251.012 1096.21 249.28 1092.08 249.28C1088.66 249.28 1084.93 251.9 1083.77 255.097L1083.6 255.542H1082.35V254.787C1082.35 254.787 1082.44 254.032 1082.44 253.099V251.944C1082.44 250.701 1082.04 249.857 1080.13 249.857H1077.38V251.367H1078.75C1079.82 251.367 1080.53 252.078 1080.53 253.143V273.216H1082.49V262.203C1082.49 260.826 1082.62 259.716 1082.93 258.694C1083.99 254.831 1087.1 250.923 1091.68 250.923C1097.58 250.923 1097.58 256.385 1097.58 259.005V273.216H1099.54V262.203C1099.54 260.604 1099.67 259.449 1100.03 258.384C1101.05 254.742 1104.29 250.968 1108.55 250.968Z" fill="#231F20"/>
<path d="M1125.96 253.193C1125.96 252.482 1125.56 252.127 1124.89 252.127H1122.81V249.24H1126.31C1128.45 249.24 1129.33 250.129 1129.33 252.26V270.023C1129.33 270.778 1129.73 271.089 1130.4 271.089H1132.49V273.976H1128.98C1126.85 273.976 1125.96 273.087 1125.96 270.956V253.193ZM1125.87 239.382H1129.11V243.601H1125.87V239.382Z" fill="#231F20"/>
<path d="M1133.15 274.684H1128.98C1126.49 274.684 1125.29 273.485 1125.29 270.998V253.235C1125.29 252.924 1125.2 252.836 1124.89 252.836H1122.14V248.572H1126.31C1128.8 248.572 1130 249.771 1130 252.258V270.021C1130 270.332 1130.04 270.421 1130.4 270.421H1133.15V274.684ZM1123.52 251.415H1124.89C1125.96 251.415 1126.67 252.125 1126.67 253.191V270.954C1126.67 272.686 1127.25 273.263 1128.98 273.263H1131.78V271.753H1130.4C1129.29 271.753 1128.62 271.087 1128.62 269.977V252.214C1128.62 250.482 1128.05 249.905 1126.31 249.905H1123.52V251.415ZM1129.82 244.309H1125.2V238.714H1129.82V244.309ZM1126.54 242.888H1128.4V240.046H1126.54V242.888Z" fill="#231F20"/>
<path d="M1138.08 253.191C1138.08 252.48 1137.68 252.125 1137.02 252.125H1134.98V249.238H1138.39C1140.48 249.238 1141.41 250.127 1141.41 251.992V253.146C1141.41 254.123 1141.33 254.923 1141.33 254.923H1141.41C1142.3 252.658 1145.46 248.661 1151.27 248.661C1157.45 248.661 1159.58 252.169 1159.58 258.253V270.021C1159.58 270.776 1159.98 271.087 1160.64 271.087H1162.69V273.974H1159.18C1157.05 273.974 1156.16 273.085 1156.16 270.954V259.097C1156.16 255.189 1155.58 251.77 1150.78 251.77C1146.57 251.77 1142.92 254.656 1141.77 258.742C1141.5 259.763 1141.37 260.918 1141.37 262.072V273.929H1138.04V253.191H1138.08Z" fill="#231F20"/>
<path d="M1163.4 274.681H1159.22C1156.73 274.681 1155.54 273.482 1155.54 270.995V259.139C1155.54 254.92 1154.78 252.477 1150.87 252.477C1147.01 252.477 1143.59 255.142 1142.52 258.961C1142.26 259.849 1142.17 260.826 1142.17 262.114V274.681H1137.46V253.232C1137.46 252.921 1137.37 252.833 1137.06 252.833H1134.31V248.569H1138.44C1141.5 248.569 1142.12 250.435 1142.12 252.033V252.433C1143.77 250.301 1146.79 247.992 1151.27 247.992C1157.4 247.992 1160.29 251.278 1160.29 258.295V270.063C1160.29 270.374 1160.33 270.463 1160.69 270.463H1163.44V274.681H1163.4ZM1150.83 251.101C1156.16 251.101 1156.87 254.964 1156.87 259.139V270.995C1156.87 272.727 1157.45 273.305 1159.18 273.305H1161.97V271.795H1160.6C1159.49 271.795 1158.82 271.129 1158.82 270.018V258.25C1158.82 251.989 1156.56 249.324 1151.18 249.324C1145.68 249.324 1142.75 253.143 1141.99 255.142L1141.81 255.586H1140.57V254.831C1140.57 254.831 1140.66 254.076 1140.66 253.143V251.989C1140.66 250.745 1140.26 249.902 1138.35 249.902H1135.6V251.412H1136.97C1138.04 251.412 1138.75 252.122 1138.75 253.188V273.26H1140.75V262.069C1140.75 260.648 1140.88 259.538 1141.15 258.517C1142.39 254.165 1146.39 251.101 1150.83 251.101Z" fill="#231F20"/>
<path d="M1176.94 248.604C1182.94 248.604 1185.02 253.223 1185.02 253.223H1185.11C1185.11 253.223 1185.02 252.379 1185.02 251.358V243.32C1185.02 242.609 1184.62 242.254 1183.96 242.254H1181.87V239.323H1185.38C1187.51 239.323 1188.4 240.211 1188.4 242.343V269.965C1188.4 270.72 1188.8 271.03 1189.46 271.03H1191.55V273.917H1188.13C1186.04 273.917 1185.16 272.984 1185.16 271.164C1185.16 270.231 1185.24 269.609 1185.24 269.609H1185.16C1185.16 269.609 1183.11 274.539 1176.63 274.539C1169.97 274.539 1165.84 269.21 1165.84 261.527C1165.84 253.711 1170.46 248.604 1176.94 248.604ZM1185.11 261.572C1185.11 256.553 1182.54 251.624 1177.25 251.624C1172.85 251.624 1169.26 255.31 1169.26 261.572C1169.26 267.7 1172.45 271.563 1177.07 271.563C1181.2 271.563 1185.11 268.588 1185.11 261.572Z" fill="#231F20"/>
<path d="M1176.59 275.262C1169.75 275.262 1165.13 269.755 1165.13 261.584C1165.13 253.546 1169.97 247.951 1176.94 247.951C1180.72 247.951 1183.07 249.638 1184.31 251.059V243.377C1184.31 243.066 1184.23 242.977 1183.91 242.977H1181.16V238.714H1185.34C1187.82 238.714 1189.02 239.913 1189.02 242.4V270.021C1189.02 270.332 1189.07 270.421 1189.42 270.421H1192.17V274.684H1188.04C1185.42 274.684 1184.63 273.308 1184.45 271.887C1183.16 273.396 1180.72 275.262 1176.59 275.262ZM1176.94 249.327C1170.68 249.327 1166.51 254.257 1166.51 261.584C1166.51 269.044 1170.46 273.885 1176.59 273.885C1182.58 273.885 1184.45 269.444 1184.49 269.4L1184.67 268.956H1185.91L1185.87 269.755C1185.87 269.755 1185.78 270.377 1185.78 271.22C1185.78 272.464 1186.18 273.308 1188.04 273.308H1190.8V271.798H1189.42C1188.36 271.798 1187.64 271.132 1187.64 270.021V242.4C1187.64 240.668 1187.07 240.09 1185.34 240.09H1182.54V241.6H1183.91C1184.98 241.6 1185.69 242.311 1185.69 243.377V251.415C1185.69 252.391 1185.78 253.191 1185.78 253.191L1185.87 253.946H1184.67L1184.36 253.546C1184.31 253.368 1182.4 249.327 1176.94 249.327ZM1177.08 272.242C1171.97 272.242 1168.55 267.934 1168.55 261.539C1168.55 255.278 1172.1 250.926 1177.21 250.926C1183.12 250.926 1185.78 256.433 1185.78 261.539C1185.82 269.444 1181.12 272.242 1177.08 272.242ZM1177.25 252.303C1172.95 252.303 1169.97 256.122 1169.97 261.539C1169.97 267.179 1172.77 270.865 1177.12 270.865C1180.67 270.865 1184.45 268.423 1184.45 261.539C1184.45 256.965 1182.23 252.303 1177.25 252.303Z" fill="#231F20"/>
<path d="M1196.08 267.919C1196.08 267.919 1198.83 271.649 1203.72 271.649C1206.47 271.649 1208.96 270.317 1208.96 267.697C1208.96 262.279 1195.06 263.256 1195.06 255.307C1195.06 250.822 1198.88 248.602 1203.85 248.602C1206.38 248.602 1211.4 249.579 1211.4 253.087V255.218H1208.25V254.019C1208.25 252.199 1205.58 251.488 1203.98 251.488C1200.57 251.488 1198.48 252.687 1198.48 255.085C1198.48 260.636 1212.38 259.348 1212.38 267.608C1212.38 271.738 1208.65 274.536 1203.72 274.536C1197.28 274.536 1194.21 270.228 1194.21 270.228L1196.08 267.919Z" fill="#231F20"/>
<path d="M1203.63 275.244C1196.88 275.244 1193.68 270.804 1193.55 270.626L1193.24 270.182L1196.04 266.807L1196.57 267.517C1196.61 267.562 1199.19 270.981 1203.63 270.981C1205.89 270.981 1208.16 269.96 1208.16 267.739C1208.16 265.741 1205.58 264.72 1202.65 263.521C1198.7 261.966 1194.26 260.146 1194.26 255.305C1194.26 250.731 1197.9 247.934 1203.76 247.934C1207.09 247.934 1211.98 249.31 1211.98 253.085V255.883H1207.45V254.017C1207.45 252.818 1205.36 252.197 1203.85 252.197C1201.63 252.197 1199.01 252.685 1199.01 255.128C1199.01 257.17 1201.54 258.192 1204.52 259.346C1208.25 260.812 1212.91 262.677 1212.91 267.651C1213 272.047 1209.05 275.244 1203.63 275.244ZM1195.01 270.226C1195.9 271.248 1198.7 273.868 1203.63 273.868C1208.25 273.868 1211.62 271.248 1211.62 267.606C1211.62 263.565 1207.8 262.055 1204.12 260.59C1200.83 259.302 1197.72 258.059 1197.72 255.083C1197.72 252.374 1199.99 250.82 1203.94 250.82C1205.85 250.82 1208.91 251.664 1208.91 254.017V254.506H1210.69V253.085C1210.69 249.976 1205.63 249.31 1203.85 249.31C1198.74 249.31 1195.72 251.575 1195.72 255.305C1195.72 259.213 1199.54 260.767 1203.23 262.233C1206.52 263.565 1209.62 264.809 1209.62 267.695C1209.62 270.448 1207.27 272.313 1203.72 272.313C1199.81 272.313 1197.19 270.093 1196.08 268.938L1195.01 270.226Z" fill="#231F20"/>
<path d="M1219.84 270.201H1223.61V273.976H1219.84V270.201ZM1219.93 239.382H1223.35L1223.22 264.961H1220.06L1219.93 239.382Z" fill="#231F20"/>
<path d="M1224.32 274.684H1219.17V269.488H1224.32V274.684ZM1220.55 273.308H1222.95V270.91H1220.55V273.308ZM1223.92 265.625H1219.39L1219.22 238.714H1224.06L1223.92 265.625ZM1220.77 264.248H1222.55L1222.68 240.09H1220.64L1220.77 264.248Z" fill="#231F20"/>
</svg>
