<svg width="526" height="182" viewBox="0 0 526 182" fill="none" xmlns="http://www.w3.org/2000/svg">
<path d="M57.3811 43.2371H44.3462C43.3007 43.2371 42.6964 43.6945 42.6964 44.8869V48.3988H37.894V42.8614C37.894 39.6435 38.9394 38.5818 42.1737 38.5818H77.8483C81.0662 38.5818 82.1279 39.6272 82.1279 42.8614V48.3988H77.2603V44.8869C77.2603 43.6945 76.7375 43.2371 75.6105 43.2371H62.6408V91.277H57.3975V43.2371H57.3811Z" fill="white"/>
<path d="M99.197 52.6787C109.618 52.6787 115.009 60.699 115.009 70.075C115.009 70.9734 114.862 72.6232 114.862 72.6232H85.9333C86.0804 82.1462 92.7611 87.6183 100.553 87.6183C107.446 87.6183 111.873 82.9793 111.873 82.9793L114.339 86.8015C114.339 86.8015 108.867 92.1919 100.324 92.1919C89.1512 92.1919 80.6083 84.09 80.6083 72.4762C80.6246 60.0946 89.0859 52.6787 99.197 52.6787ZM109.765 68.5722C109.471 60.7806 104.669 56.9584 99.1316 56.9584C92.9082 56.9584 87.4361 61.0093 86.162 68.5722H109.765Z" fill="white"/>
<path d="M141.553 52.6787C145.832 52.6787 154.963 54.4755 154.963 60.699V64.0639H150.161V61.8914C150.161 58.7388 144.689 57.2524 141.536 57.2524C133.435 57.2524 126.917 63.3288 126.917 72.4598C126.917 81.7542 133.729 87.5202 141.683 87.5202C149.41 87.5202 153.82 82.1952 153.82 82.1952L156.221 86.0175C156.221 86.0175 151.125 92.1593 141.455 92.1593C130.217 92.1593 121.674 84.139 121.674 72.4435C121.69 60.9276 130.298 52.6787 141.553 52.6787Z" fill="white"/>
<path d="M164.323 44.6582C164.323 43.6128 163.719 43.0084 162.673 43.0084H159.521V38.5818H164.846C168.064 38.5818 169.42 39.9376 169.42 43.0084V58.9673C169.42 60.6824 169.273 62.0382 169.273 62.0382H169.42C170.841 58.4446 175.872 52.6621 184.333 52.6621C193.693 52.6621 196.992 57.9872 196.992 67.2815V85.1842C196.992 86.3113 197.597 86.834 198.642 86.834H201.795V91.2606H196.47C193.252 91.2606 191.896 89.9049 191.896 86.687V68.6373C191.896 62.7079 190.997 57.4645 183.647 57.4645C177.276 57.4645 171.739 61.8912 170.008 68.1799C169.55 69.6827 169.403 71.3978 169.403 73.1946V91.2606H164.307V44.6582H164.323Z" fill="white"/>
<path d="M209.896 59.6539C209.896 58.6085 209.292 58.0041 208.246 58.0041H205.094V53.5774H210.337C213.49 53.5774 214.911 54.9332 214.911 57.7754V59.4906C214.911 60.9933 214.764 62.1857 214.764 62.1857H214.911C216.266 58.7392 221.052 52.6627 229.906 52.6627C239.265 52.6627 242.565 57.9878 242.565 67.2821V85.1848C242.565 86.3118 243.169 86.8345 244.215 86.8345H247.367V91.2612H242.042C238.824 91.2612 237.469 89.9054 237.469 86.6875V68.6379C237.469 62.7084 236.57 57.4651 229.301 57.4651C222.849 57.4651 217.312 61.8917 215.597 68.0988C215.139 69.667 214.992 71.3984 214.992 73.1952V91.2612H209.896V59.6539Z" fill="white"/>
<path d="M317.067 57.8405H312.118V53.5608H317.132V43.1394H322.147V53.5608H331.588V57.8405H322.147V77.0335C322.147 85.8705 327.766 86.9976 330.608 86.9976C331.654 86.9976 332.34 86.8506 332.34 86.8506V91.4243C332.34 91.4243 331.441 91.5713 330.167 91.5713C325.822 91.5713 317.051 90.1502 317.051 77.5562V57.8405H317.067Z" fill="white"/>
<path d="M340.965 44.6582C340.965 43.6128 340.36 43.0084 339.315 43.0084H336.162V38.5818H341.487C344.705 38.5818 346.061 39.9376 346.061 43.0084V58.9673C346.061 60.6824 345.914 62.0382 345.914 62.0382H346.061C347.482 58.4446 352.497 52.6621 360.974 52.6621C370.334 52.6621 373.634 57.9872 373.634 67.2815V85.1842C373.634 86.3113 374.238 86.834 375.283 86.834H378.436V91.2606H373.111C369.893 91.2606 368.537 89.9049 368.537 86.687V68.6373C368.537 62.7079 367.639 57.4645 360.288 57.4645C353.918 57.4645 348.364 61.8912 346.649 68.1799C346.192 69.6827 346.045 71.3978 346.045 73.1946V91.2606H340.948V44.6582H340.965Z" fill="white"/>
<path d="M386.456 44.6582C386.456 43.6128 385.852 43.0084 384.806 43.0084H381.654V38.5818H386.979C390.197 38.5818 391.553 39.9376 391.553 43.1555V85.2005C391.553 86.3276 392.157 86.8503 393.202 86.8503H396.355V91.277H391.03C387.812 91.277 386.456 89.9212 386.456 86.7033V44.6582Z" fill="white"/>
<path d="M421.233 52.6787C432.242 52.6787 441.161 61.0747 441.161 72.2475C441.161 83.6326 432.242 92.1756 421.298 92.1756C410.289 92.1756 401.37 83.6326 401.37 72.2475C401.37 61.0747 410.289 52.6787 421.233 52.6787ZM421.298 87.6019C429.319 87.6019 435.918 81.0028 435.918 72.2475C435.918 63.7045 429.319 57.334 421.298 57.334C413.196 57.334 406.614 63.7045 406.614 72.2475C406.614 81.0028 413.213 87.6019 421.298 87.6019Z" fill="white"/>
<path d="M450.684 59.6539C450.684 58.6085 450.08 58.0041 449.034 58.0041H445.882V53.5774H451.125C454.278 53.5774 455.699 54.9332 455.699 57.7754V59.4906C455.699 60.9933 455.552 62.1857 455.552 62.1857H455.699C457.038 58.7392 461.84 52.6627 470.694 52.6627C480.053 52.6627 483.353 57.9878 483.353 67.2821V85.1848C483.353 86.3118 483.957 86.8345 485.003 86.8345H488.155V91.2612H482.83C479.612 91.2612 478.257 89.9054 478.257 86.6875V68.6379C478.257 62.7084 477.358 57.4651 470.089 57.4651C463.637 57.4651 458.1 61.8917 456.368 68.0988C455.911 69.667 455.764 71.3984 455.764 73.1952V91.2612H450.668V59.6539H450.684Z" fill="white"/>
<path d="M39.4621 107.891H37.8286V105.947H39.5111V102.501H41.8796V105.947H44.8851V107.891H41.8796V113.657C41.8796 116.173 43.6111 116.499 44.5421 116.499C44.8852 116.499 45.1138 116.45 45.1138 116.45V118.59C45.1138 118.59 44.7871 118.639 44.2644 118.639C42.68 118.639 39.4621 118.149 39.4621 113.951V107.891Z" fill="#FFDE3B"/>
<path d="M47.8421 103.595C47.8421 103.219 47.646 103.056 47.303 103.056H46.2903V100.998H48.6752C49.7859 100.998 50.2596 101.472 50.2596 102.533V107.434C50.2596 108.038 50.2106 108.479 50.2106 108.479H50.2596C50.7986 107.254 52.4157 105.669 54.9313 105.669C57.8878 105.669 59.2272 107.287 59.2272 110.488V115.928C59.2272 116.303 59.4232 116.483 59.7663 116.483H60.779V118.541H58.4269C57.2998 118.541 56.8424 118.067 56.8424 116.957V111.044C56.8424 109.279 56.4667 107.891 54.4575 107.891C52.5464 107.891 50.9946 109.181 50.4883 110.995C50.3086 111.485 50.2596 112.056 50.2596 112.661V118.557H47.8421V103.595Z" fill="#FFDE3B"/>
<path d="M68.4882 105.653C72.0165 105.653 73.9113 108.283 73.9113 111.55C73.9113 111.877 73.8296 112.546 73.8296 112.546H64.6659C64.8129 115.225 66.7568 116.744 68.9946 116.744C71.1508 116.744 72.6699 115.274 72.6699 115.274L73.7153 116.989C73.7153 116.989 71.8531 118.835 68.8639 118.835C64.8946 118.835 62.1831 115.976 62.1831 112.252C62.1831 108.25 64.9109 105.653 68.4882 105.653ZM71.4285 110.782C71.3468 108.691 70.04 107.581 68.4719 107.581C66.6261 107.581 65.1396 108.691 64.7639 110.782H71.4285Z" fill="#FFDE3B"/>
<path d="M83.9241 108.561C83.9241 108.186 83.7281 108.022 83.3851 108.022H82.3723V105.964H84.7408C85.8516 105.964 86.3253 106.438 86.3253 107.549V115.928C86.3253 116.304 86.5213 116.484 86.8643 116.484H87.8771V118.542H85.5086C84.3978 118.542 83.9241 118.068 83.9241 116.957V108.561ZM83.9731 100.982H86.1293V103.498H83.9731V100.982Z" fill="#FFDE3B"/>
<path d="M90.6216 108.561C90.6216 108.185 90.4256 108.022 90.0826 108.022H89.0698V105.964H91.373C92.4347 105.964 92.9574 106.437 92.9574 107.352V107.826C92.9574 108.218 92.9084 108.545 92.9084 108.545H92.9574C93.4475 107.45 94.9503 105.67 97.6782 105.67C100.667 105.67 102.007 107.287 102.007 110.488V115.928C102.007 116.303 102.203 116.483 102.546 116.483H103.559V118.541H101.174C100.063 118.541 99.5893 118.068 99.5893 116.957V111.044C99.5893 109.28 99.2463 107.891 97.2208 107.891C95.277 107.891 93.7415 109.165 93.2515 110.978C93.0718 111.468 93.0228 112.04 93.0228 112.661V118.558H90.6053V108.561H90.6216Z" fill="#FFDE3B"/>
<path d="M106.286 107.891H104.653V105.947H106.335V102.501H108.704V105.947H111.709V107.891H108.704V113.657C108.704 116.173 110.452 116.499 111.366 116.499C111.709 116.499 111.938 116.45 111.938 116.45V118.59C111.938 118.59 111.611 118.639 111.089 118.639C109.504 118.639 106.286 118.149 106.286 113.951V107.891Z" fill="#FFDE3B"/>
<path d="M119.795 105.653C123.323 105.653 125.218 108.283 125.218 111.55C125.218 111.877 125.136 112.546 125.136 112.546H115.973C116.12 115.225 118.063 116.744 120.301 116.744C122.457 116.744 123.976 115.274 123.976 115.274L125.022 116.989C125.022 116.989 123.16 118.835 120.171 118.835C116.201 118.835 113.49 115.976 113.49 112.252C113.49 108.25 116.218 105.653 119.795 105.653ZM122.719 110.782C122.637 108.691 121.33 107.581 119.762 107.581C117.916 107.581 116.43 108.691 116.054 110.782H122.719Z" fill="#FFDE3B"/>
<path d="M128.42 108.56C128.42 108.185 128.224 108.021 127.881 108.021H126.868V105.963H129.155C130.249 105.963 130.772 106.404 130.772 107.433V108.234C130.772 108.724 130.723 109.099 130.723 109.099H130.772C131.36 107.254 132.814 105.816 134.741 105.816C135.068 105.816 135.395 105.865 135.395 105.865V108.25C135.395 108.25 135.068 108.168 134.676 108.168C133.141 108.168 131.72 109.263 131.148 111.125C130.919 111.844 130.854 112.611 130.854 113.379V118.524H128.436V108.56H128.42Z" fill="#FFDE3B"/>
<path d="M138.204 108.561C138.204 108.185 138.008 108.022 137.665 108.022H136.652V105.964H138.971C140.033 105.964 140.556 106.437 140.556 107.352V107.826C140.556 108.218 140.507 108.545 140.507 108.545H140.556C141.046 107.45 142.549 105.67 145.276 105.67C148.266 105.67 149.605 107.287 149.605 110.488V115.928C149.605 116.303 149.801 116.483 150.16 116.483H151.173V118.541H148.788C147.678 118.541 147.204 118.068 147.204 116.957V111.044C147.204 109.28 146.861 107.891 144.835 107.891C142.892 107.891 141.356 109.165 140.866 110.978C140.687 111.468 140.637 112.04 140.637 112.661V118.558H138.22V108.561H138.204Z" fill="#FFDE3B"/>
<path d="M160.141 110.7H160.68V110.586C160.68 108.381 159.864 107.581 157.904 107.581C157.299 107.581 155.845 107.728 155.845 108.544V109.263H153.591V108.022C153.591 105.963 156.728 105.653 157.936 105.653C162.004 105.653 163.098 107.793 163.098 110.57V115.911C163.098 116.287 163.294 116.467 163.637 116.467H164.65V118.525H162.396C161.285 118.525 160.827 117.986 160.827 117.087C160.827 116.663 160.877 116.336 160.877 116.336H160.827C160.827 116.336 159.831 118.819 156.826 118.819C154.669 118.819 152.546 117.496 152.546 114.996C152.562 110.945 158.034 110.7 160.141 110.7ZM157.365 116.891C159.406 116.891 160.713 114.751 160.713 112.889V112.465H160.092C158.279 112.465 154.996 112.563 154.996 114.882C154.996 115.895 155.764 116.891 157.365 116.891Z" fill="#FFDE3B"/>
<path d="M167.378 107.891H165.744V105.947H167.427V102.501H169.779V105.947H172.785V107.891H169.779V113.657C169.779 116.173 171.527 116.499 172.442 116.499C172.785 116.499 173.013 116.45 173.013 116.45V118.59C173.013 118.59 172.687 118.639 172.164 118.639C170.579 118.639 167.361 118.149 167.361 113.951V107.891H167.378Z" fill="#FFDE3B"/>
<path d="M176.149 108.561C176.149 108.186 175.953 108.022 175.61 108.022H174.598V105.964H176.95C178.061 105.964 178.534 106.438 178.534 107.549V115.928C178.534 116.304 178.73 116.484 179.073 116.484H180.086V118.542H177.734C176.607 118.542 176.149 118.068 176.149 116.957V108.561ZM176.198 100.982H178.355V103.498H176.198V100.982Z" fill="#FFDE3B"/>
<path d="M188.4 105.653C192.157 105.653 195.179 108.414 195.179 112.22C195.179 116.042 192.141 118.835 188.4 118.835C184.643 118.835 181.637 116.058 181.637 112.22C181.637 108.414 184.643 105.653 188.4 105.653ZM188.4 116.744C190.785 116.744 192.729 114.866 192.729 112.22C192.729 109.606 190.785 107.744 188.4 107.744C186.031 107.744 184.104 109.606 184.104 112.22C184.088 114.849 186.031 116.744 188.4 116.744Z" fill="#FFDE3B"/>
<path d="M198.185 108.561C198.185 108.185 197.989 108.022 197.646 108.022H196.633V105.964H198.953C200.014 105.964 200.537 106.437 200.537 107.352V107.826C200.537 108.218 200.488 108.545 200.488 108.545H200.537C201.027 107.45 202.53 105.67 205.258 105.67C208.247 105.67 209.586 107.287 209.586 110.488V115.928C209.586 116.303 209.782 116.483 210.125 116.483H211.138V118.541H208.753C207.642 118.541 207.169 118.068 207.169 116.957V111.044C207.169 109.28 206.826 107.891 204.8 107.891C202.857 107.891 201.321 109.165 200.831 110.978C200.651 111.468 200.602 112.04 200.602 112.661V118.558H198.185V108.561V108.561Z" fill="#FFDE3B"/>
<path d="M220.121 110.7H220.66V110.586C220.66 108.381 219.844 107.581 217.884 107.581C217.279 107.581 215.825 107.728 215.825 108.544V109.263H213.555V108.022C213.555 105.963 216.691 105.653 217.9 105.653C221.967 105.653 223.062 107.793 223.062 110.57V115.911C223.062 116.287 223.258 116.467 223.601 116.467H224.613V118.525H222.359C221.249 118.525 220.791 117.986 220.791 117.087C220.791 116.663 220.84 116.336 220.84 116.336H220.791C220.791 116.336 219.795 118.819 216.789 118.819C214.633 118.819 212.51 117.496 212.51 114.996C212.542 110.945 218.014 110.7 220.121 110.7ZM217.345 116.891C219.386 116.891 220.693 114.751 220.693 112.889V112.465H220.072C218.259 112.465 214.976 112.563 214.976 114.882C214.976 115.895 215.744 116.891 217.345 116.891Z" fill="#FFDE3B"/>
<path d="M227.194 103.595C227.194 103.219 226.998 103.056 226.655 103.056H225.643V100.998H228.027C229.138 100.998 229.612 101.472 229.612 102.582V115.928C229.612 116.303 229.808 116.483 230.151 116.483H231.164V118.541H228.779C227.668 118.541 227.194 118.067 227.194 116.957V103.595Z" fill="#FFDE3B"/>
<path d="M240.394 114.996C240.394 114.996 241.88 116.859 244.2 116.859C245.359 116.859 246.388 116.336 246.388 115.241C246.388 112.987 239.528 113.232 239.528 109.181C239.528 106.764 241.635 105.653 244.2 105.653C245.719 105.653 248.332 106.176 248.332 108.087V109.279H246.176V108.659C246.176 107.907 245.049 107.597 244.281 107.597C242.86 107.597 241.945 108.087 241.945 109.083C241.945 111.468 248.806 110.945 248.806 115.143C248.806 117.381 246.813 118.819 244.183 118.819C240.835 118.819 239.168 116.614 239.168 116.614L240.394 114.996Z" fill="#FFDE3B"/>
<path d="M257.414 105.653C258.933 105.653 261.938 106.274 261.938 108.414V109.704H259.75V109.002C259.75 108.103 258.328 107.711 257.414 107.711C254.947 107.711 253.118 109.557 253.118 112.203C253.118 115.062 255.209 116.679 257.544 116.679C259.913 116.679 261.448 114.931 261.448 114.931L262.494 116.646C262.494 116.646 260.697 118.802 257.381 118.802C253.428 118.802 250.668 115.993 250.668 112.22C250.651 108.544 253.363 105.653 257.414 105.653Z" fill="#FFDE3B"/>
<path d="M264.944 103.595C264.944 103.219 264.748 103.056 264.405 103.056H263.392V100.998H265.777C266.887 100.998 267.361 101.472 267.361 102.533V107.434C267.361 108.038 267.312 108.479 267.312 108.479H267.361C267.9 107.254 269.517 105.669 272.033 105.669C274.989 105.669 276.329 107.287 276.329 110.488V115.928C276.329 116.303 276.525 116.483 276.868 116.483H277.881V118.541H275.528C274.418 118.541 273.944 118.067 273.944 116.957V111.044C273.944 109.279 273.568 107.891 271.559 107.891C269.648 107.891 268.112 109.181 267.59 110.995C267.41 111.485 267.361 112.056 267.361 112.661V118.557H264.944V103.595Z" fill="#FFDE3B"/>
<path d="M286.032 105.653C289.789 105.653 292.811 108.414 292.811 112.22C292.811 116.042 289.772 118.835 286.032 118.835C282.275 118.835 279.269 116.058 279.269 112.22C279.286 108.414 282.291 105.653 286.032 105.653ZM286.032 116.744C288.417 116.744 290.36 114.866 290.36 112.22C290.36 109.606 288.417 107.744 286.032 107.744C283.68 107.744 281.736 109.606 281.736 112.22C281.736 114.849 283.68 116.744 286.032 116.744Z" fill="#FFDE3B"/>
<path d="M301.37 105.653C305.127 105.653 308.148 108.414 308.148 112.22C308.148 116.042 305.11 118.835 301.37 118.835C297.613 118.835 294.607 116.058 294.607 112.22C294.607 108.414 297.613 105.653 301.37 105.653ZM301.37 116.744C303.755 116.744 305.698 114.866 305.698 112.22C305.698 109.606 303.755 107.744 301.37 107.744C299.001 107.744 297.074 109.606 297.074 112.22C297.074 114.849 299.001 116.744 301.37 116.744Z" fill="#FFDE3B"/>
<path d="M310.876 103.595C310.876 103.219 310.68 103.056 310.337 103.056H309.324V100.998H311.709C312.836 100.998 313.294 101.472 313.294 102.582V115.928C313.294 116.303 313.49 116.483 313.833 116.483H314.846V118.541H312.461C311.35 118.541 310.876 118.067 310.876 116.957V103.595Z" fill="#FFDE3B"/>
<path d="M329.808 105.653C331.327 105.653 334.332 106.274 334.332 108.414V109.704H332.144V109.002C332.144 108.103 330.722 107.711 329.808 107.711C327.341 107.711 325.512 109.557 325.512 112.203C325.512 115.062 327.603 116.679 329.938 116.679C332.307 116.679 333.842 114.931 333.842 114.931L334.888 116.646C334.888 116.646 333.107 118.802 329.775 118.802C325.822 118.802 323.062 115.993 323.062 112.22C323.045 108.544 325.757 105.653 329.808 105.653Z" fill="#FFDE3B"/>
<path d="M337.339 103.595C337.339 103.219 337.143 103.056 336.8 103.056H335.787V100.998H338.172C339.283 100.998 339.756 101.472 339.756 102.533V107.434C339.756 108.038 339.707 108.479 339.707 108.479H339.756C340.296 107.254 341.913 105.669 344.428 105.669C347.385 105.669 348.724 107.287 348.724 110.488V115.928C348.724 116.303 348.92 116.483 349.263 116.483H350.276V118.541H347.924C346.813 118.541 346.339 118.067 346.339 116.957V111.044C346.339 109.279 345.964 107.891 343.954 107.891C342.043 107.891 340.491 109.181 339.985 110.995C339.805 111.485 339.756 112.056 339.756 112.661V118.557H337.339V103.595Z" fill="#FFDE3B"/>
<path d="M359.276 110.7H359.815V110.586C359.815 108.381 358.998 107.581 357.022 107.581C356.434 107.581 354.964 107.728 354.964 108.544V109.263H352.693V108.022C352.693 105.963 355.829 105.653 357.038 105.653C361.105 105.653 362.2 107.793 362.2 110.57V115.911C362.2 116.287 362.396 116.467 362.739 116.467H363.752V118.525H361.497C360.387 118.525 359.929 117.986 359.929 117.087C359.929 116.663 359.978 116.336 359.978 116.336H359.929C359.929 116.336 358.933 118.819 355.927 118.819C353.771 118.819 351.648 117.496 351.648 114.996C351.697 110.945 357.169 110.7 359.276 110.7ZM356.499 116.891C358.541 116.891 359.848 114.751 359.848 112.889V112.465H359.227C357.414 112.465 354.131 112.563 354.131 114.882C354.131 115.895 354.915 116.891 356.499 116.891Z" fill="#FFDE3B"/>
<path d="M366.414 108.561C366.414 108.185 366.218 108.022 365.875 108.022H364.862V105.964H367.165C368.259 105.964 368.749 106.437 368.749 107.352V107.826C368.749 108.218 368.733 108.545 368.733 108.545H368.782C369.386 107.074 371.118 105.67 373.078 105.67C375.218 105.67 376.443 106.633 376.851 108.528H376.9C377.603 107.009 379.334 105.67 381.376 105.67C384.218 105.67 385.525 107.287 385.525 110.488V115.928C385.525 116.303 385.721 116.483 386.064 116.483H387.077V118.541H384.692C383.565 118.541 383.107 118.068 383.107 116.957V111.011C383.107 109.247 382.764 107.859 380.902 107.859C379.155 107.859 377.815 109.378 377.374 111.093C377.243 111.615 377.178 112.154 377.178 112.808V118.541H374.761V111.011C374.761 109.378 374.516 107.859 372.604 107.859C370.759 107.859 369.468 109.394 368.994 111.191C368.864 111.681 368.815 112.236 368.815 112.808V118.541H366.397V108.561H366.414Z" fill="#FFDE3B"/>
<path d="M389.691 108.561C389.691 108.185 389.495 108.022 389.152 108.022H388.123V105.964H390.377C391.504 105.964 391.912 106.437 391.912 107.238C391.912 107.613 391.896 107.908 391.896 107.908H391.945C391.945 107.908 392.99 105.67 396.127 105.67C399.508 105.67 401.664 108.349 401.664 112.252C401.664 116.254 399.23 118.835 395.947 118.835C393.17 118.835 392.092 116.826 392.092 116.826H392.043C392.043 116.826 392.092 117.267 392.092 117.921V123.507H389.675V108.561H389.691ZM395.588 116.761C397.581 116.761 399.214 115.127 399.214 112.269C399.214 109.541 397.744 107.777 395.653 107.777C393.791 107.777 392.027 109.1 392.027 112.301C392.027 114.539 393.252 116.761 395.588 116.761Z" fill="#FFDE3B"/>
<path d="M404.817 108.561C404.817 108.186 404.621 108.022 404.278 108.022H403.265V105.964H405.617C406.728 105.964 407.218 106.438 407.218 107.549V115.928C407.218 116.304 407.414 116.484 407.757 116.484H408.77V118.542H406.401C405.291 118.542 404.817 118.068 404.817 116.957V108.561ZM404.866 100.982H407.022V103.498H404.866V100.982Z" fill="#FFDE3B"/>
<path d="M417.067 105.653C420.824 105.653 423.846 108.414 423.846 112.22C423.846 116.042 420.808 118.835 417.067 118.835C413.31 118.835 410.305 116.058 410.305 112.22C410.305 108.414 413.326 105.653 417.067 105.653ZM417.067 116.744C419.452 116.744 421.396 114.866 421.396 112.22C421.396 109.606 419.452 107.744 417.067 107.744C414.699 107.744 412.771 109.606 412.771 112.22C412.771 114.849 414.715 116.744 417.067 116.744Z" fill="#FFDE3B"/>
<path d="M426.868 108.561C426.868 108.185 426.672 108.022 426.329 108.022H425.316V105.964H427.619C428.681 105.964 429.203 106.437 429.203 107.352V107.826C429.203 108.218 429.154 108.545 429.154 108.545H429.203C429.693 107.45 431.196 105.67 433.924 105.67C436.913 105.67 438.253 107.287 438.253 110.488V115.928C438.253 116.303 438.449 116.483 438.808 116.483H439.821V118.541H437.436C436.325 118.541 435.835 118.068 435.835 116.957V111.044C435.835 109.28 435.492 107.891 433.483 107.891C431.539 107.891 430.004 109.165 429.514 110.978C429.334 111.468 429.285 112.04 429.285 112.661V118.558H426.868V108.561V108.561Z" fill="#FFDE3B"/>
<path d="M442.223 114.996C442.223 114.996 443.71 116.859 446.029 116.859C447.205 116.859 448.218 116.336 448.218 115.241C448.218 112.987 441.357 113.232 441.357 109.181C441.357 106.764 443.465 105.653 446.029 105.653C447.548 105.653 450.162 106.176 450.162 108.087V109.279H448.006V108.659C448.006 107.907 446.895 107.597 446.111 107.597C444.69 107.597 443.775 108.087 443.775 109.083C443.775 111.468 450.635 110.945 450.635 115.143C450.635 117.381 448.643 118.819 446.013 118.819C442.664 118.819 440.998 116.614 440.998 116.614L442.223 114.996Z" fill="#FFDE3B"/>
<path d="M453.591 103.595C453.591 103.219 453.395 103.056 453.052 103.056H452.04V100.998H454.424C455.535 100.998 456.009 101.472 456.009 102.533V107.434C456.009 108.038 455.96 108.479 455.96 108.479H456.009C456.548 107.254 458.165 105.669 460.68 105.669C463.637 105.669 464.976 107.287 464.976 110.488V115.928C464.976 116.303 465.173 116.483 465.516 116.483H466.528V118.541H464.176C463.065 118.541 462.592 118.067 462.592 116.957V111.044C462.592 109.279 462.216 107.891 460.207 107.891C458.296 107.891 456.744 109.181 456.238 110.995C456.058 111.485 456.009 112.056 456.009 112.661V118.557H453.591V103.595Z" fill="#FFDE3B"/>
<path d="M469.272 108.561C469.272 108.186 469.076 108.022 468.733 108.022H467.72V105.964H470.073C471.183 105.964 471.657 106.438 471.657 107.549V115.928C471.657 116.304 471.853 116.484 472.212 116.484H473.225V118.542H470.873C469.762 118.542 469.289 118.068 469.289 116.957V108.561H469.272ZM469.321 100.982H471.494V103.498H469.321V100.982Z" fill="#FFDE3B"/>
<path d="M475.986 108.561C475.986 108.185 475.79 108.022 475.447 108.022H474.435V105.964H476.689C477.799 105.964 478.224 106.437 478.224 107.238C478.224 107.613 478.192 107.908 478.192 107.908H478.241C478.241 107.908 479.286 105.67 482.422 105.67C485.803 105.67 487.96 108.349 487.96 112.252C487.96 116.254 485.526 118.835 482.243 118.835C479.466 118.835 478.388 116.826 478.388 116.826H478.339C478.339 116.826 478.388 117.267 478.388 117.921V123.507H475.97V108.561H475.986ZM481.867 116.761C483.86 116.761 485.493 115.127 485.493 112.269C485.493 109.541 484.023 107.777 481.949 107.777C480.086 107.777 478.322 109.1 478.322 112.301C478.322 114.539 479.531 116.761 481.867 116.761Z" fill="#FFDE3B"/>
<path d="M254.163 45.5095H252.334V60.668H254.163V45.5095Z" fill="#F5E07C"/>
<path d="M264.813 68.4432C264.846 68.6065 264.862 68.7208 264.862 68.7208C264.862 68.7208 264.977 68.7208 265.14 68.7045C265.222 68.6882 265.32 68.6882 265.434 68.6718C265.483 68.6555 265.548 68.6555 265.614 68.6392C265.679 68.6228 265.663 68.5575 265.712 68.5248C265.957 68.2145 266.283 67.7898 266.61 67.3651C266.937 66.9404 267.263 66.532 267.508 66.2053C267.525 66.1563 267.606 66.1563 267.59 66.091C267.59 66.0256 267.574 65.9766 267.574 65.9113C267.557 65.797 267.557 65.699 267.541 65.6173C267.508 65.4539 267.492 65.3396 267.492 65.3396C267.492 65.3396 267.394 65.3396 267.214 65.3559C267.133 65.3723 267.035 65.3723 266.92 65.3886C266.871 65.3886 266.806 65.4049 266.741 65.4213C266.675 65.4213 266.692 65.5029 266.643 65.5356C266.398 65.846 266.071 66.2707 265.744 66.6954C265.418 67.1201 265.091 67.5284 264.846 67.8551C264.83 67.9041 264.748 67.9041 264.764 67.9695C264.764 68.0348 264.781 68.0838 264.781 68.1491C264.781 68.2471 264.797 68.3451 264.813 68.4432Z" fill="white"/>
<path d="M269.452 66.2372C269.403 66.0902 269.37 65.9922 269.37 65.9922C269.37 65.9922 269.272 65.9922 269.109 66.0085C269.027 66.0085 268.929 66.0249 268.831 66.0412C268.782 66.0412 268.717 66.0575 268.668 66.0575C268.602 66.0575 268.635 66.1229 268.586 66.1555C268.39 66.4332 268.129 66.8089 267.867 67.1846C267.606 67.5603 267.344 67.936 267.165 68.2137C267.148 68.2627 267.083 68.2627 267.099 68.3117C267.116 68.3607 267.132 68.426 267.132 68.475C267.148 68.573 267.181 68.671 267.197 68.7364C267.246 68.8834 267.279 68.9814 267.279 68.9814C267.279 68.9814 267.377 68.9814 267.54 68.9651C267.622 68.9651 267.72 68.9487 267.818 68.9324C267.867 68.9324 267.933 68.9161 267.982 68.9161C268.031 68.8997 268.014 68.8344 268.047 68.8181C268.243 68.5404 268.504 68.1647 268.749 67.789C269.011 67.4133 269.272 67.0376 269.452 66.7599C269.468 66.7109 269.533 66.7109 269.517 66.6619C269.501 66.5966 269.501 66.5476 269.484 66.4986C269.501 66.4006 269.484 66.3189 269.452 66.2372Z" fill="white"/>
<path d="M267.655 64.6534C267.671 64.7841 267.688 64.8657 267.688 64.8657C267.688 64.8657 267.769 64.8657 267.9 64.8657C267.965 64.8657 268.047 64.8494 268.129 64.8494C268.178 64.8494 268.21 64.8331 268.259 64.8331C268.308 64.8331 268.292 64.7677 268.325 64.7514C268.521 64.5227 268.782 64.196 269.027 63.8857C269.288 63.5753 269.534 63.2486 269.73 63.0199C269.746 62.9873 269.795 62.9873 269.795 62.9219C269.795 62.8729 269.795 62.8239 269.778 62.7913C269.778 62.7096 269.762 62.6279 269.762 62.5626C269.746 62.4319 269.73 62.3502 269.73 62.3502C269.73 62.3502 269.648 62.3502 269.517 62.3666C269.452 62.3666 269.37 62.3829 269.288 62.3829C269.239 62.3829 269.207 62.3992 269.158 62.3992C269.109 62.3992 269.109 62.4646 269.076 62.4809C268.88 62.7259 268.619 63.0363 268.374 63.3466C268.112 63.657 267.867 63.9837 267.671 64.2124C267.655 64.245 267.606 64.245 267.606 64.294C267.606 64.343 267.606 64.392 267.622 64.4247C267.639 64.5064 267.639 64.588 267.655 64.6534Z" fill="white"/>
<path d="M286.407 65.5355C286.358 65.3885 286.309 65.2905 286.309 65.2905C286.309 65.2905 286.211 65.2742 286.047 65.2742C285.966 65.2742 285.884 65.2742 285.786 65.2905C285.737 65.2905 285.688 65.2905 285.623 65.3068C285.574 65.3068 285.59 65.3722 285.557 65.3885C285.378 65.6335 285.133 65.9766 284.904 66.3196C284.659 66.6626 284.43 66.9893 284.251 67.2506C284.251 67.2996 284.169 67.2833 284.185 67.3487C284.202 67.3977 284.218 67.4467 284.218 67.4957C284.234 67.5937 284.267 67.6753 284.3 67.7407C284.349 67.8877 284.381 67.9694 284.381 67.9694C284.381 67.9694 284.479 67.9694 284.626 67.9694C284.708 67.9694 284.79 67.9694 284.888 67.953C284.937 67.953 284.986 67.9367 285.035 67.9367C285.1 67.9367 285.067 67.8714 285.116 67.855C285.296 67.61 285.541 67.267 285.77 66.924C286.015 66.5809 286.243 66.2542 286.423 65.9929C286.439 65.9439 286.505 65.9602 286.488 65.8949C286.472 65.8459 286.456 65.7969 286.439 65.7479C286.472 65.6989 286.439 65.6172 286.407 65.5355Z" fill="white"/>
<path d="M287.37 66.8265C287.37 66.8918 287.387 66.9572 287.387 67.0062C287.403 67.1205 287.419 67.2348 287.419 67.3165C287.452 67.4962 287.468 67.5942 287.468 67.5942C287.468 67.5942 287.583 67.5779 287.746 67.5452C287.828 67.5289 287.942 67.5125 288.04 67.4799C288.105 67.4635 288.154 67.4472 288.22 67.4309C288.285 67.4145 288.269 67.3492 288.318 67.3002C288.563 66.9408 288.906 66.4671 289.249 65.9771C289.592 65.5034 289.918 65.0133 290.18 64.654C290.196 64.605 290.278 64.5887 290.261 64.5233C290.261 64.458 290.245 64.3926 290.245 64.3436C290.229 64.2293 290.213 64.115 290.213 64.0333C290.18 63.8536 290.147 63.7393 290.147 63.7393C290.147 63.7393 290.033 63.7556 289.853 63.7883C289.771 63.8046 289.657 63.8209 289.543 63.8536C289.494 63.8699 289.428 63.8863 289.363 63.9026C289.298 63.9189 289.314 64.0006 289.265 64.0333C289.02 64.3926 288.677 64.8663 288.334 65.3564C287.991 65.8301 287.664 66.3201 287.403 66.6795C287.436 66.7448 287.354 66.7611 287.37 66.8265Z" fill="white"/>
<path d="M294.934 48.4331H306.106V43.5818H247.335V48.4331H262.036C264.421 48.8742 267.018 49.6582 267.933 50.7853C268.227 51.1447 268.243 51.4387 268.227 51.651L268.161 52.2227C259.847 55.751 253.999 63.9999 253.999 73.6046C253.999 86.3946 264.404 96.816 277.211 96.816C290 96.816 300.422 86.4109 300.422 73.6046C300.422 64.735 295.424 57.0088 288.089 53.1048H288.187L288.024 51.7654C288.008 51.553 288.008 51.2753 288.318 50.8997C289.331 49.6746 292.385 48.8415 294.934 48.4331ZM267.181 60.096C270.775 60.096 273.715 63.0199 273.715 66.6298C273.715 70.2234 270.791 73.1636 267.181 73.1636C263.588 73.1636 260.647 70.2397 260.647 66.6298C260.664 63.0199 263.588 60.096 267.181 60.096ZM277.064 74.4704C276.721 74.4704 276.443 74.7481 276.443 75.0911C276.443 75.4178 276.704 75.6791 277.015 75.7118L276.639 81.9189C276.59 81.8372 276.541 81.7392 276.508 81.6576C275.969 80.6612 275.299 79.6811 274.564 78.75C273.356 77.2309 271.983 75.8915 270.775 74.8461C273.601 73.5883 275.675 70.9258 276.067 67.7405H278.632C279.171 70.8278 281.31 73.376 284.153 74.503C282.846 75.5484 281.294 76.9696 279.938 78.603C279.563 79.0604 279.187 79.5341 278.86 80.0078C278.517 80.4815 278.207 80.9879 277.929 81.4779C277.799 81.7229 277.668 81.9516 277.554 82.1966L277.145 75.7118C277.439 75.6628 277.668 75.4178 277.668 75.1074C277.684 74.7481 277.407 74.4704 277.064 74.4704ZM297.629 73.5883C297.629 84.8591 288.465 94.0228 277.194 94.0228C265.923 94.0228 256.76 84.8591 256.76 73.5883C256.76 70.9094 257.282 68.3286 258.23 65.9764C258.213 66.1888 258.197 66.4011 258.197 66.6135C258.197 71.5628 262.215 75.5811 267.165 75.5811C267.688 75.5811 268.194 75.5321 268.684 75.4504C268.749 75.4994 268.798 75.5485 268.864 75.5975C270.138 76.6429 271.787 78.1456 273.127 79.8608C273.813 80.7102 274.417 81.6086 274.891 82.4906C275.12 82.9317 275.332 83.3727 275.495 83.781C275.659 84.2057 275.789 84.5978 275.887 84.9735C275.904 85.0715 275.936 85.1532 275.936 85.2512C275.936 85.3492 275.953 85.4308 276.018 85.5125C276.132 85.6759 276.214 85.8229 276.296 85.9699C276.475 86.2639 276.59 86.5416 276.721 86.7866C276.933 87.2766 277.064 87.5543 277.064 87.5543C277.064 87.5543 277.096 87.489 277.162 87.3583C277.178 87.3256 277.194 87.293 277.211 87.2603C277.243 87.342 277.276 87.391 277.276 87.391C277.276 87.391 277.39 87.1133 277.619 86.6233C277.75 86.3946 277.864 86.1169 278.044 85.8229C278.142 85.6759 278.207 85.5125 278.321 85.3655C278.387 85.2838 278.403 85.2022 278.403 85.1042C278.419 85.0061 278.436 84.9245 278.468 84.8265C278.517 84.6468 278.583 84.4508 278.648 84.2384C278.73 84.0424 278.795 83.8464 278.877 83.634C279.056 83.2257 279.269 82.7846 279.514 82.3436C279.759 81.9026 280.036 81.4615 280.347 81.0368C280.641 80.5958 280.984 80.1711 281.327 79.7464C282.715 78.064 284.398 76.5939 285.704 75.5648C285.786 75.4994 285.868 75.4341 285.95 75.3851C286.031 75.3361 286.113 75.2871 286.178 75.2054C286.211 75.1564 286.243 75.0911 286.276 75.0421C286.668 75.0911 287.044 75.1238 287.452 75.1238C292.222 75.1238 296.142 71.3668 296.404 66.6625C297.204 68.835 297.629 71.1545 297.629 73.5883ZM294.002 66.1561C294.002 69.7497 291.079 72.6899 287.469 72.6899C283.875 72.6899 280.935 69.766 280.935 66.1561C280.935 62.5625 283.859 59.6223 287.469 59.6223C291.079 59.6223 294.002 62.5625 294.002 66.1561ZM289.755 57.4825C289.02 57.2865 288.253 57.1884 287.469 57.1884C282.568 57.1884 278.566 61.1414 278.501 66.0418H276.132C275.822 61.3701 271.934 57.6621 267.181 57.6621C265.858 57.6621 264.617 57.9562 263.49 58.4625C265.27 56.8454 267.361 55.5387 269.631 54.6239C269.893 54.6076 270.138 54.4769 270.334 54.3626C272.474 53.5948 274.793 53.1702 277.194 53.1702C281.931 53.1538 286.293 54.7709 289.755 57.4825Z" fill="white"/>
<path d="M282.373 137.913H280.968V139.367H282.373V137.913Z" fill="#FFDE3B"/>
<path d="M282.617 139.612H280.723V137.652H282.617V139.612ZM281.229 139.106H282.111V138.158H281.229V139.106Z" fill="#FFDE3B"/>
<path d="M286.261 137.913H284.872V139.367H286.261V137.913Z" fill="#FFDE3B"/>
<path d="M286.522 139.612H284.627V137.652H286.522V139.612ZM285.117 139.106H286.015V138.158H285.133V139.106H285.117Z" fill="#FFDE3B"/>
<path d="M290.149 137.913H288.76V139.367H290.149V137.913Z" fill="#FFDE3B"/>
<path d="M290.409 139.612H288.515V137.652H290.409V139.612ZM289.021 139.106H289.903V138.158H289.021V139.106Z" fill="#FFDE3B"/>
<path d="M294.052 137.913H292.663V139.367H294.052V137.913Z" fill="#FFDE3B"/>
<path d="M294.314 139.612H292.419V137.652H294.314V139.612ZM292.909 139.106H293.791V138.158H292.909V139.106Z" fill="#FFDE3B"/>
<path d="M297.939 137.913H296.551V139.367H297.939V137.913Z" fill="#FFDE3B"/>
<path d="M298.201 139.612H296.306V137.652H298.201V139.612ZM296.812 139.106H297.694V138.158H296.812V139.106Z" fill="#FFDE3B"/>
<path d="M300.03 138.224H301.223V127.737H300.03V126.627H303.673V127.737H302.464V138.224H303.673V139.351H300.03V138.224Z" fill="#FFDE3B"/>
<path d="M303.918 139.613H299.769V137.98H300.962V127.999H299.769V126.366H303.918V127.999H302.709V137.98H303.918V139.613ZM300.292 139.107H303.428V138.486H302.219V127.493H303.428V126.872H300.292V127.493H301.484V138.486H300.292V139.107Z" fill="#FFDE3B"/>
<path d="M306.091 131.707C306.091 131.446 305.944 131.315 305.699 131.315H304.931V130.253H306.205C306.973 130.253 307.316 130.58 307.316 131.266V131.691C307.316 132.05 307.284 132.344 307.284 132.344H307.316C307.643 131.511 308.803 130.041 310.942 130.041C313.213 130.041 313.997 131.331 313.997 133.569V137.898C313.997 138.175 314.144 138.29 314.389 138.29H315.157V139.351H313.866C313.082 139.351 312.756 139.025 312.756 138.241V133.879C312.756 132.442 312.543 131.184 310.779 131.184C309.227 131.184 307.888 132.246 307.463 133.749C307.349 134.124 307.316 134.549 307.316 134.974V139.335H306.091V131.707Z" fill="#FFDE3B"/>
<path d="M315.385 139.612H313.85C312.935 139.612 312.494 139.171 312.494 138.256V133.895C312.494 132.343 312.216 131.444 310.779 131.444C309.358 131.444 308.1 132.425 307.708 133.829C307.61 134.156 307.577 134.515 307.577 134.989V139.612H305.846V131.722C305.846 131.608 305.813 131.575 305.699 131.575H304.686V130.007H306.205C307.332 130.007 307.561 130.693 307.561 131.281V131.428C308.165 130.644 309.276 129.795 310.926 129.795C313.18 129.795 314.242 131.003 314.242 133.584V137.913C314.242 138.027 314.258 138.06 314.389 138.06H315.401V139.612H315.385ZM310.779 130.938C312.739 130.938 313 132.359 313 133.895V138.256C313 138.893 313.213 139.105 313.85 139.105H314.879V138.55H314.372C313.964 138.55 313.719 138.305 313.719 137.897V133.568C313.719 131.265 312.886 130.285 310.909 130.285C308.884 130.285 307.806 131.689 307.512 132.425L307.447 132.588H306.989V132.31C306.989 132.31 307.022 132.033 307.022 131.689V131.265C307.022 130.807 306.875 130.497 306.173 130.497H305.16V131.052H305.666C306.058 131.052 306.319 131.314 306.319 131.706V139.089H307.038V134.973C307.038 134.45 307.087 134.042 307.202 133.666C307.659 132.065 309.129 130.938 310.779 130.938Z" fill="#FFDE3B"/>
<path d="M316.757 137.13C316.757 137.13 317.77 138.502 319.566 138.502C320.579 138.502 321.494 138.012 321.494 137.048C321.494 135.055 316.381 135.415 316.381 132.491C316.381 130.841 317.802 130.024 319.615 130.024C320.546 130.024 322.392 130.384 322.392 131.674V132.458H321.232V132.017C321.232 131.347 320.252 131.086 319.664 131.086C318.39 131.086 317.639 131.527 317.639 132.409C317.639 134.451 322.752 133.977 322.752 137.015C322.752 138.534 321.379 139.564 319.566 139.564C317.198 139.564 316.071 137.979 316.071 137.979L316.757 137.13Z" fill="#FFDE3B"/>
<path d="M319.55 139.825C317.067 139.825 315.891 138.191 315.842 138.126L315.728 137.963L316.757 136.721L316.953 136.983C316.953 136.999 317.917 138.257 319.55 138.257C320.383 138.257 321.216 137.881 321.216 137.064C321.216 136.329 320.269 135.954 319.191 135.512C317.737 134.941 316.103 134.271 316.103 132.491C316.103 130.808 317.443 129.779 319.599 129.779C320.824 129.779 322.621 130.285 322.621 131.674V132.703H320.955V132.017C320.955 131.576 320.187 131.347 319.632 131.347C318.815 131.347 317.851 131.527 317.851 132.425C317.851 133.177 318.782 133.552 319.877 133.977C321.249 134.516 322.964 135.202 322.964 137.032C322.98 138.649 321.543 139.825 319.55 139.825ZM316.381 137.979C316.724 138.355 317.737 139.318 319.55 139.318C321.249 139.318 322.49 138.355 322.49 137.015C322.49 135.529 321.086 134.973 319.73 134.434C318.521 133.961 317.394 133.503 317.394 132.409C317.394 131.413 318.227 130.841 319.681 130.841C320.383 130.841 321.51 131.151 321.51 132.017V132.197H322.164V131.674C322.164 130.53 320.301 130.285 319.648 130.285C317.786 130.285 316.659 131.118 316.659 132.491C316.659 133.928 318.064 134.5 319.419 135.039C320.628 135.529 321.755 135.986 321.755 137.048C321.755 138.061 320.889 138.747 319.583 138.747C318.145 138.747 317.182 137.93 316.79 137.505L316.381 137.979Z" fill="#FFDE3B"/>
<path d="M325.072 131.707C325.072 131.445 324.925 131.315 324.68 131.315H323.928V130.237H325.17C325.954 130.237 326.264 130.563 326.264 131.2C326.264 131.56 326.248 131.821 326.248 131.821H326.28C326.28 131.821 326.999 130.024 329.417 130.024C331.867 130.024 333.386 131.984 333.386 134.81C333.386 137.685 331.671 139.58 329.319 139.58C327.097 139.58 326.329 137.865 326.329 137.865H326.297C326.297 137.865 326.329 138.191 326.329 138.665V142.994H325.088V131.707H325.072ZM329.172 138.485C330.789 138.485 332.112 137.13 332.112 134.81C332.112 132.589 330.936 131.151 329.237 131.151C327.718 131.151 326.28 132.246 326.28 134.827C326.264 136.656 327.26 138.485 329.172 138.485Z" fill="#FFDE3B"/>
<path d="M326.558 143.222H324.826V131.706C324.826 131.592 324.794 131.559 324.679 131.559H323.667V129.991H325.169C325.986 129.991 326.427 130.334 326.492 131.004C326.966 130.449 327.864 129.762 329.4 129.762C331.932 129.762 333.614 131.788 333.614 134.793C333.614 137.75 331.834 139.808 329.286 139.808C327.881 139.808 327.015 139.171 326.541 138.648V143.222H326.558ZM325.316 142.732H326.051V138.648C326.051 138.207 326.019 137.881 326.019 137.881L325.986 137.603H326.427L326.525 137.75C326.558 137.815 327.26 139.318 329.286 139.318C331.54 139.318 333.108 137.456 333.108 134.81C333.108 132.066 331.654 130.285 329.4 130.285C327.195 130.285 326.525 131.853 326.492 131.919L326.427 132.082H325.986L325.97 131.804C325.97 131.804 325.986 131.559 325.986 131.2C325.986 130.759 325.839 130.497 325.153 130.497H324.157V131.053H324.663C325.055 131.053 325.316 131.314 325.316 131.706V142.732V142.732ZM329.171 138.73C327.097 138.73 326.019 136.77 326.019 134.826C326.019 131.919 327.75 130.89 329.22 130.89C331.099 130.89 332.356 132.458 332.356 134.81C332.356 137.129 331.033 138.73 329.171 138.73ZM329.22 131.396C327.914 131.396 326.525 132.294 326.525 134.826C326.525 136.525 327.44 138.224 329.171 138.224C330.756 138.224 331.85 136.819 331.85 134.793C331.85 132.735 330.821 131.396 329.22 131.396Z" fill="#FFDE3B"/>
<path d="M335.803 131.707C335.803 131.445 335.656 131.315 335.411 131.315H334.644V130.253H335.934C336.718 130.253 337.045 130.58 337.045 131.364V137.898C337.045 138.175 337.192 138.29 337.437 138.29H338.204V139.351H336.914C336.13 139.351 335.803 139.025 335.803 138.241V131.707ZM335.754 126.627H336.947V128.178H335.754V126.627Z" fill="#FFDE3B"/>
<path d="M338.434 139.613H336.898C335.983 139.613 335.542 139.172 335.542 138.257V131.723C335.542 131.609 335.51 131.576 335.395 131.576H334.383V130.008H335.918C336.833 130.008 337.274 130.449 337.274 131.364V137.897C337.274 138.012 337.29 138.044 337.421 138.044H338.434V139.613ZM334.889 131.053H335.395C335.787 131.053 336.049 131.315 336.049 131.707V138.24C336.049 138.878 336.261 139.09 336.898 139.09H337.927V138.534H337.421C337.012 138.534 336.767 138.289 336.767 137.881V131.347C336.767 130.71 336.555 130.498 335.918 130.498H334.889V131.053ZM337.209 128.44H335.51V126.382H337.209V128.44ZM336.016 127.917H336.702V126.872H336.016V127.917Z" fill="#FFDE3B"/>
<path d="M340.246 131.707C340.246 131.445 340.099 131.315 339.854 131.315H339.086V130.253H340.361C341.112 130.253 341.471 130.563 341.471 131.282V131.903C341.471 132.279 341.439 132.589 341.439 132.589H341.471C341.912 131.217 342.925 130.155 344.346 130.155C344.591 130.155 344.836 130.204 344.836 130.204V131.413C344.836 131.413 344.624 131.38 344.379 131.38C343.088 131.38 342.125 132.393 341.733 133.732C341.553 134.32 341.488 134.925 341.488 135.513V139.351H340.246V131.707V131.707Z" fill="#FFDE3B"/>
<path d="M341.732 139.613H340.001V131.723C340.001 131.609 339.968 131.576 339.854 131.576H338.841V130.008H340.36C341.259 130.008 341.716 130.433 341.716 131.299V131.446C342.337 130.482 343.251 129.927 344.346 129.927C344.623 129.927 344.885 129.992 344.885 129.992L345.081 130.041V131.756L344.787 131.707C344.787 131.707 344.591 131.674 344.378 131.674C343.3 131.674 342.369 132.507 341.977 133.847C341.814 134.37 341.732 134.941 341.732 135.546V139.613V139.613ZM340.507 139.107H341.226V135.513C341.226 134.843 341.324 134.222 341.504 133.667C341.961 132.115 343.072 131.135 344.395 131.135C344.46 131.135 344.525 131.135 344.591 131.135V130.417C344.525 130.417 344.444 130.4 344.362 130.4C343.153 130.4 342.173 131.233 341.716 132.654L341.667 132.834H341.193V132.556C341.193 132.556 341.226 132.262 341.226 131.903V131.282C341.226 130.711 340.997 130.498 340.377 130.498H339.364V131.054H339.87C340.262 131.054 340.523 131.315 340.523 131.707V139.107H340.507Z" fill="#FFDE3B"/>
<path d="M346.895 131.707C346.895 131.445 346.748 131.315 346.503 131.315H345.735V130.253H347.025C347.809 130.253 348.136 130.58 348.136 131.364V137.898C348.136 138.175 348.283 138.29 348.528 138.29H349.296V139.351H348.005C347.221 139.351 346.895 139.025 346.895 138.241V131.707ZM346.862 126.627H348.054V128.178H346.862V126.627Z" fill="#FFDE3B"/>
<path d="M349.541 139.613H348.005C347.09 139.613 346.649 139.172 346.649 138.257V131.723C346.649 131.609 346.617 131.576 346.502 131.576H345.49V130.008H347.025C347.94 130.008 348.381 130.449 348.381 131.364V137.897C348.381 138.012 348.397 138.044 348.528 138.044H349.541V139.613ZM345.996 131.053H346.502C346.894 131.053 347.156 131.315 347.156 131.707V138.24C347.156 138.878 347.368 139.09 348.005 139.09H349.034V138.534H348.528C348.119 138.534 347.874 138.289 347.874 137.881V131.347C347.874 130.71 347.662 130.498 347.025 130.498H345.996V131.053ZM348.315 128.44H346.617V126.382H348.315V128.44ZM347.123 127.917H347.809V126.872H347.123V127.917Z" fill="#FFDE3B"/>
<path d="M351.353 131.707C351.353 131.446 351.206 131.315 350.961 131.315H350.193V130.253H351.468C352.235 130.253 352.578 130.58 352.578 131.266V131.691C352.578 132.05 352.546 132.344 352.546 132.344H352.578C352.905 131.511 354.065 130.041 356.204 130.041C358.475 130.041 359.275 131.331 359.275 133.569V137.898C359.275 138.175 359.422 138.29 359.667 138.29H360.419V139.351H359.128C358.344 139.351 358.018 139.025 358.018 138.241V133.879C358.018 132.442 357.805 131.184 356.041 131.184C354.489 131.184 353.15 132.246 352.725 133.749C352.611 134.124 352.578 134.549 352.578 134.974V139.335H351.353V131.707Z" fill="#FFDE3B"/>
<path d="M360.664 139.612H359.129C358.214 139.612 357.773 139.171 357.773 138.256V133.895C357.773 132.343 357.496 131.444 356.058 131.444C354.637 131.444 353.379 132.425 352.987 133.829C352.889 134.156 352.84 134.515 352.84 134.989V139.612H351.109V131.722C351.109 131.608 351.076 131.575 350.962 131.575H349.949V130.007H351.468C352.595 130.007 352.824 130.693 352.824 131.281V131.428C353.428 130.644 354.539 129.795 356.189 129.795C358.443 129.795 359.505 131.003 359.505 133.584V137.913C359.505 138.027 359.521 138.06 359.652 138.06H360.664V139.612V139.612ZM356.042 130.938C358.002 130.938 358.263 132.359 358.263 133.895V138.256C358.263 138.893 358.476 139.105 359.113 139.105H360.142V138.55H359.635C359.227 138.55 358.982 138.305 358.982 137.897V133.568C358.982 131.265 358.149 130.285 356.172 130.285C354.163 130.285 353.069 131.689 352.791 132.425L352.726 132.588H352.268V132.31C352.268 132.31 352.301 132.033 352.301 131.689V131.265C352.301 130.807 352.154 130.497 351.452 130.497H350.439V131.052H350.945C351.337 131.052 351.599 131.314 351.599 131.706V139.089H352.334V134.973C352.334 134.45 352.383 134.042 352.481 133.666C352.938 132.065 354.408 130.938 356.042 130.938Z" fill="#FFDE3B"/>
<path d="M365.499 130.024C367.949 130.024 368.521 131.576 368.521 131.576H368.553V131.233C368.553 130.58 368.847 130.237 369.582 130.237H370.84V131.298H370.105C369.86 131.298 369.697 131.429 369.697 131.69V139.122C369.697 142.014 367.557 143.141 365.319 143.141C364.29 143.141 363.244 142.863 362.346 142.422L362.82 141.393C362.82 141.393 363.947 142.03 365.286 142.03C367.067 142.03 368.471 141.197 368.471 139.172V138.371C368.471 138.028 368.488 137.718 368.488 137.718H368.455C367.916 138.714 367.001 139.286 365.597 139.286C363.146 139.286 361.546 137.342 361.546 134.614C361.562 131.886 363.065 130.024 365.499 130.024ZM368.504 134.631C368.504 131.968 367.23 131.151 365.629 131.151C363.849 131.151 362.82 132.442 362.82 134.614C362.82 136.787 363.996 138.191 365.793 138.191C367.246 138.191 368.504 137.309 368.504 134.631Z" fill="#FFDE3B"/>
<path d="M365.336 143.418C364.291 143.418 363.196 143.157 362.249 142.667L362.036 142.553L362.723 141.05L362.968 141.181C362.984 141.181 364.062 141.785 365.303 141.785C366.398 141.785 368.244 141.442 368.244 139.171V138.502C367.623 139.204 366.741 139.563 365.614 139.563C363.082 139.563 361.302 137.538 361.302 134.63C361.302 131.674 362.951 129.779 365.499 129.779C367.051 129.779 367.901 130.367 368.342 130.857C368.456 130.285 368.881 129.991 369.583 129.991H371.102V131.56H370.106C369.991 131.56 369.959 131.576 369.959 131.707V139.139C369.975 142.291 367.59 143.418 365.336 143.418ZM362.706 142.308C363.539 142.683 364.47 142.896 365.352 142.896C366.316 142.896 369.485 142.618 369.485 139.122V131.69C369.485 131.282 369.73 131.037 370.138 131.037H370.628V130.481H369.616C369.044 130.481 368.832 130.677 368.832 131.233V131.837H368.407L368.309 131.674C368.293 131.625 367.754 130.285 365.516 130.285C363.278 130.285 361.824 131.984 361.824 134.63C361.824 137.277 363.36 139.057 365.63 139.057C366.872 139.057 367.737 138.583 368.276 137.62L368.358 137.489H368.783L368.799 137.75C368.799 137.75 368.783 138.061 368.783 138.387V139.188C368.783 141.132 367.492 142.308 365.336 142.308C364.307 142.308 363.409 141.965 362.984 141.769L362.706 142.308ZM365.794 138.453C363.866 138.453 362.576 136.901 362.576 134.614C362.576 132.295 363.719 130.906 365.63 130.906C367.051 130.906 368.766 131.56 368.766 134.63C368.766 137.946 366.904 138.453 365.794 138.453ZM365.63 131.396C364.013 131.396 363.082 132.572 363.082 134.598C363.082 136.623 364.144 137.93 365.794 137.93C367.411 137.93 368.26 136.787 368.26 134.614C368.26 132.458 367.394 131.396 365.63 131.396Z" fill="#FFDE3B"/>
<path d="M380.298 133.814L376.9 128.211C376.672 127.835 376.427 127.737 376.051 127.737H375.757V126.61H376.247C377.113 126.61 377.439 126.741 377.995 127.623L380.151 131.233C380.543 131.902 380.935 132.67 380.935 132.67H380.968C380.968 132.67 381.343 131.902 381.752 131.233L383.908 127.623C384.447 126.741 384.773 126.61 385.639 126.61H386.129V127.737H385.835C385.476 127.737 385.214 127.819 385.002 128.211L381.572 133.814V139.351H380.298V133.814V133.814Z" fill="#FFDE3B"/>
<path d="M381.834 139.613H380.054V133.896L376.689 128.359C376.509 128.065 376.346 128.016 376.052 128.016H375.513V126.382H376.248C377.195 126.382 377.604 126.546 378.208 127.509L380.364 131.119C380.576 131.479 380.789 131.887 380.936 132.165C381.083 131.887 381.295 131.495 381.524 131.119L383.68 127.509C384.284 126.546 384.693 126.366 385.64 126.366H386.375V127.999H385.836C385.558 127.999 385.395 128.048 385.215 128.342L381.818 133.88V139.613H381.834ZM380.56 139.107H381.328V133.749L384.791 128.097C385.085 127.575 385.493 127.509 385.836 127.509H385.869V126.889H385.64C384.84 126.889 384.611 126.97 384.121 127.787L381.965 131.397C381.573 132.05 381.197 132.802 381.197 132.818L381.132 132.965H380.821L380.707 132.818C380.707 132.818 380.331 132.05 379.939 131.397L377.783 127.787C377.293 126.987 377.048 126.889 376.264 126.889H376.035V127.509H376.068C376.493 127.509 376.836 127.607 377.13 128.097L380.576 133.749V139.107H380.56Z" fill="#FFDE3B"/>
<path d="M390.556 130.024C393.219 130.024 395.375 132.05 395.375 134.745C395.375 137.505 393.219 139.564 390.572 139.564C387.91 139.564 385.754 137.505 385.754 134.745C385.754 132.05 387.91 130.024 390.556 130.024ZM390.572 138.469C392.516 138.469 394.101 136.868 394.101 134.761C394.101 132.703 392.5 131.151 390.572 131.151C388.612 131.151 387.028 132.687 387.028 134.761C387.028 136.868 388.629 138.469 390.572 138.469Z" fill="#FFDE3B"/>
<path d="M390.573 139.825C387.73 139.825 385.493 137.603 385.493 134.761C385.493 131.968 387.714 129.779 390.54 129.779C393.382 129.779 395.604 131.968 395.604 134.761C395.636 137.603 393.415 139.825 390.573 139.825ZM390.556 130.285C388.008 130.285 386.015 132.246 386.015 134.761C386.015 137.326 388.025 139.335 390.589 139.335C393.137 139.335 395.13 137.326 395.13 134.761C395.13 132.246 393.121 130.285 390.556 130.285ZM390.573 138.714C388.433 138.714 386.767 136.966 386.767 134.745C386.767 132.589 388.433 130.89 390.573 130.89C392.696 130.89 394.362 132.589 394.362 134.745C394.362 136.983 392.696 138.714 390.573 138.714ZM390.573 131.396C388.727 131.396 387.273 132.866 387.273 134.745C387.273 136.689 388.727 138.208 390.573 138.208C392.402 138.208 393.856 136.689 393.856 134.745C393.856 132.866 392.418 131.396 390.573 131.396Z" fill="#FFDE3B"/>
<path d="M397.645 131.707C397.645 131.446 397.498 131.315 397.253 131.315H396.485V130.254H397.776C398.56 130.254 398.886 130.58 398.886 131.315V135.726C398.886 137.163 399.132 138.421 400.879 138.421C402.954 138.421 404.228 136.591 404.228 134.615V130.254H405.453V137.898C405.453 138.176 405.6 138.29 405.845 138.29H406.613V139.352H405.355C404.604 139.352 404.261 139.025 404.261 138.339V137.931C404.261 137.572 404.293 137.278 404.293 137.278H404.261C403.901 138.16 402.709 139.581 400.716 139.581C398.56 139.581 397.661 138.421 397.661 136.052V131.707H397.645Z" fill="#FFDE3B"/>
<path d="M400.7 139.825C398.43 139.825 397.384 138.617 397.384 136.036V131.707C397.384 131.593 397.352 131.56 397.237 131.56H396.225V129.992H397.76C398.675 129.992 399.116 130.417 399.116 131.315V135.725C399.116 137.277 399.394 138.176 400.847 138.176C402.856 138.176 403.951 136.346 403.951 134.631V130.008H405.682V137.898C405.682 138.029 405.699 138.045 405.829 138.045H406.842V139.613H405.339C404.212 139.613 403.984 138.927 403.984 138.339V138.192C403.395 138.976 402.301 139.825 400.7 139.825ZM396.747 131.054H397.254C397.646 131.054 397.907 131.315 397.907 131.707V136.036C397.907 138.339 398.74 139.319 400.717 139.319C402.644 139.319 403.722 137.914 404.033 137.179L404.098 137.016H404.555V137.293C404.555 137.293 404.523 137.571 404.523 137.914V138.323C404.523 138.78 404.67 139.09 405.372 139.09H406.368V138.535H405.862C405.454 138.535 405.209 138.29 405.209 137.882V130.498H404.49V134.615C404.49 136.575 403.232 138.666 400.88 138.666C398.642 138.666 398.642 136.673 398.642 135.709V131.299C398.642 130.694 398.43 130.482 397.793 130.482H396.764V131.054H396.747Z" fill="#FFDE3B"/>
<path d="M408.606 131.707C408.606 131.446 408.459 131.315 408.214 131.315H407.463V130.253H408.72C409.488 130.253 409.831 130.58 409.831 131.266V131.691C409.831 132.05 409.799 132.344 409.799 132.344H409.831C410.158 131.511 411.318 130.041 413.457 130.041C415.728 130.041 416.512 131.331 416.512 133.569V137.898C416.512 138.175 416.659 138.29 416.904 138.29H417.672V139.351H416.381C415.597 139.351 415.271 139.025 415.271 138.241V133.879C415.271 132.442 415.058 131.184 413.294 131.184C411.726 131.184 410.403 132.246 409.978 133.749C409.864 134.124 409.831 134.549 409.831 134.974V139.335H408.59V131.707H408.606Z" fill="#FFDE3B"/>
<path d="M417.917 139.612H416.382C415.467 139.612 415.026 139.171 415.026 138.256V133.895C415.026 132.343 414.748 131.444 413.311 131.444C411.89 131.444 410.632 132.425 410.24 133.829C410.142 134.156 410.109 134.515 410.109 134.989V139.612H408.378V131.722C408.378 131.608 408.345 131.575 408.231 131.575H407.218V130.007H408.737C409.864 130.007 410.093 130.693 410.093 131.281V131.428C410.698 130.644 411.808 129.795 413.458 129.795C415.712 129.795 416.774 131.003 416.774 133.584V137.913C416.774 138.027 416.79 138.06 416.921 138.06H417.934V139.612H417.917ZM413.295 130.938C415.255 130.938 415.516 132.359 415.516 133.895V138.256C415.516 138.893 415.729 139.105 416.366 139.105H417.395V138.55H416.888C416.48 138.55 416.235 138.305 416.235 137.897V133.568C416.235 131.265 415.402 130.285 413.425 130.285C411.416 130.285 410.322 131.689 410.044 132.425L409.979 132.588H409.521V132.31C409.521 132.31 409.554 132.033 409.554 131.689V131.265C409.554 130.807 409.407 130.497 408.705 130.497H407.692V131.052H408.198C408.59 131.052 408.852 131.314 408.852 131.706V139.089H409.57V134.973C409.57 134.45 409.619 134.042 409.734 133.666C410.191 132.065 411.661 130.938 413.295 130.938Z" fill="#FFDE3B"/>
<path d="M422.751 130.024C425.202 130.024 425.773 131.576 425.773 131.576H425.806V131.233C425.806 130.58 426.1 130.237 426.835 130.237H428.109V131.298H427.374C427.129 131.298 426.982 131.429 426.982 131.69V139.122C426.982 142.014 424.842 143.141 422.588 143.141C421.559 143.141 420.513 142.863 419.615 142.422L420.089 141.393C420.089 141.393 421.216 142.03 422.555 142.03C424.336 142.03 425.741 141.197 425.741 139.172V138.371C425.741 138.028 425.757 137.718 425.757 137.718H425.724C425.185 138.714 424.27 139.286 422.866 139.286C420.416 139.286 418.798 137.342 418.798 134.614C418.798 131.886 420.301 130.024 422.751 130.024ZM425.757 134.631C425.757 131.968 424.483 131.151 422.882 131.151C421.102 131.151 420.072 132.442 420.072 134.614C420.072 136.787 421.249 138.191 423.045 138.191C424.499 138.191 425.757 137.309 425.757 134.631Z" fill="#FFDE3B"/>
<path d="M422.588 143.418C421.542 143.418 420.448 143.157 419.501 142.667L419.288 142.553L419.974 141.05L420.219 141.181C420.236 141.181 421.297 141.785 422.555 141.785C423.65 141.785 425.495 141.442 425.495 139.171V138.502C424.875 139.204 423.993 139.563 422.866 139.563C420.317 139.563 418.553 137.538 418.553 134.63C418.553 131.674 420.203 129.779 422.751 129.779C424.303 129.779 425.152 130.367 425.593 130.857C425.708 130.285 426.132 129.991 426.835 129.991H428.354V131.56H427.358C427.227 131.56 427.21 131.576 427.21 131.707V139.139C427.227 142.291 424.826 143.418 422.588 143.418ZM419.958 142.308C420.791 142.683 421.706 142.896 422.588 142.896C423.552 142.896 426.72 142.618 426.72 139.122V131.69C426.72 131.282 426.965 131.037 427.374 131.037H427.864V130.481H426.851C426.279 130.481 426.067 130.677 426.067 131.233V131.837H425.642L425.544 131.674C425.528 131.625 424.973 130.285 422.751 130.285C420.513 130.285 419.06 131.984 419.06 134.63C419.06 137.277 420.595 139.057 422.866 139.057C424.107 139.057 424.973 138.583 425.512 137.62L425.577 137.489H426.002L426.018 137.75C426.018 137.75 426.002 138.061 426.002 138.387V139.188C426.002 141.132 424.711 142.308 422.555 142.308C421.526 142.308 420.628 141.965 420.219 141.769L419.958 142.308ZM423.045 138.453C421.118 138.453 419.827 136.901 419.827 134.614C419.827 132.295 420.971 130.906 422.882 130.906C424.319 130.906 426.018 131.56 426.018 134.63C426.018 137.946 424.156 138.453 423.045 138.453ZM422.882 131.396C421.265 131.396 420.334 132.572 420.334 134.598C420.334 136.623 421.395 137.93 423.045 137.93C424.662 137.93 425.512 136.787 425.512 134.614C425.512 132.458 424.646 131.396 422.882 131.396Z" fill="#FFDE3B"/>
<path d="M435.035 131.707C435.035 131.446 434.888 131.315 434.643 131.315H433.875V130.253H435.133C435.901 130.253 436.244 130.58 436.244 131.266V131.691C436.244 132.05 436.211 132.344 436.211 132.344H436.244C436.701 131.119 438.139 130.041 439.543 130.041C441.226 130.041 442.091 130.825 442.369 132.328H442.402C442.892 131.103 444.215 130.041 445.75 130.041C447.956 130.041 448.772 131.331 448.772 133.569V137.898C448.772 138.175 448.919 138.29 449.164 138.29H449.932V139.351H448.642C447.858 139.351 447.531 139.025 447.531 138.241V133.863C447.531 132.377 447.22 131.152 445.554 131.152C444.182 131.152 443.039 132.377 442.679 133.716C442.549 134.108 442.516 134.549 442.516 135.039V139.351H441.291V133.863C441.291 132.491 441.095 131.152 439.364 131.152C437.877 131.152 436.766 132.442 436.391 133.83C436.276 134.206 436.244 134.631 436.244 135.039V139.351H435.019V131.707H435.035Z" fill="#FFDE3B"/>
<path d="M450.194 139.612H448.658C447.743 139.612 447.302 139.171 447.302 138.256V133.878C447.302 132.098 446.812 131.412 445.587 131.412C444.297 131.412 443.268 132.637 442.941 133.797C442.827 134.14 442.794 134.515 442.794 135.054V139.612H441.063V133.878C441.063 132.359 440.785 131.412 439.397 131.412C437.992 131.412 436.995 132.702 436.669 133.911C436.571 134.238 436.538 134.597 436.538 135.054V139.612H434.807V131.722C434.807 131.608 434.774 131.575 434.659 131.575H433.647V130.007H435.166C436.293 130.007 436.522 130.693 436.522 131.281V131.379C437.24 130.448 438.433 129.795 439.56 129.795C441.095 129.795 442.043 130.399 442.467 131.657C443.17 130.53 444.444 129.795 445.767 129.795C447.972 129.795 449.05 131.036 449.05 133.584V137.913C449.05 138.027 449.067 138.06 449.197 138.06H450.21V139.612H450.194ZM445.587 130.889C447.564 130.889 447.809 132.474 447.809 133.862V138.24C447.809 138.877 448.021 139.089 448.658 139.089H449.687V138.534H449.181C448.789 138.534 448.527 138.289 448.527 137.88V133.552C448.527 131.281 447.678 130.268 445.751 130.268C444.411 130.268 443.137 131.134 442.631 132.392L442.565 132.555H442.19L442.108 132.343C441.847 130.905 441.046 130.268 439.527 130.268C438.269 130.268 436.897 131.232 436.473 132.408L436.407 132.572H435.95V132.294C435.95 132.294 435.983 132.016 435.983 131.673V131.248C435.983 130.791 435.836 130.481 435.133 130.481H434.12V131.036H434.627C435.019 131.036 435.28 131.297 435.28 131.689V139.073H435.999V135.022C435.999 134.515 436.048 134.107 436.162 133.731C436.554 132.31 437.698 130.873 439.38 130.873C441.553 130.873 441.553 132.882 441.553 133.846V139.073H442.271V135.022C442.271 134.434 442.32 134.009 442.451 133.617C442.827 132.278 444.019 130.889 445.587 130.889Z" fill="#FFDE3B"/>
<path d="M451.99 131.707C451.99 131.445 451.843 131.315 451.598 131.315H450.831V130.253H452.121C452.905 130.253 453.232 130.58 453.232 131.364V137.898C453.232 138.175 453.379 138.29 453.624 138.29H454.391V139.351H453.101C452.317 139.351 451.99 139.025 451.99 138.241V131.707ZM451.958 126.627H453.15V128.178H451.958V126.627Z" fill="#FFDE3B"/>
<path d="M454.636 139.613H453.101C452.186 139.613 451.745 139.172 451.745 138.257V131.723C451.745 131.609 451.712 131.576 451.598 131.576H450.585V130.008H452.121C453.035 130.008 453.476 130.449 453.476 131.364V137.897C453.476 138.012 453.493 138.044 453.623 138.044H454.636V139.613ZM451.092 131.053H451.598C451.99 131.053 452.251 131.315 452.251 131.707V138.24C452.251 138.878 452.464 139.09 453.101 139.09H454.13V138.534H453.623C453.215 138.534 452.97 138.289 452.97 137.881V131.347C452.97 130.71 452.758 130.498 452.121 130.498H451.092V131.053ZM453.411 128.44H451.712V126.382H453.411V128.44ZM452.202 127.917H452.888V126.872H452.202V127.917Z" fill="#FFDE3B"/>
<path d="M456.45 131.707C456.45 131.446 456.303 131.315 456.058 131.315H455.307V130.253H456.564C457.332 130.253 457.675 130.58 457.675 131.266V131.691C457.675 132.05 457.642 132.344 457.642 132.344H457.675C458.002 131.511 459.162 130.041 461.301 130.041C463.572 130.041 464.356 131.331 464.356 133.569V137.898C464.356 138.175 464.503 138.29 464.748 138.29H465.499V139.351H464.209C463.425 139.351 463.098 139.025 463.098 138.241V133.879C463.098 132.442 462.886 131.184 461.122 131.184C459.57 131.184 458.23 132.246 457.806 133.749C457.708 134.124 457.659 134.549 457.659 134.974V139.335H456.434V131.707H456.45Z" fill="#FFDE3B"/>
<path d="M465.76 139.612H464.225C463.31 139.612 462.869 139.171 462.869 138.256V133.895C462.869 132.343 462.591 131.444 461.154 131.444C459.733 131.444 458.475 132.425 458.083 133.829C457.985 134.156 457.953 134.515 457.953 134.989V139.612H456.221V131.722C456.221 131.608 456.188 131.575 456.074 131.575H455.061V130.007H456.58C457.707 130.007 457.936 130.693 457.936 131.281V131.428C458.541 130.644 459.651 129.795 461.301 129.795C463.555 129.795 464.617 131.003 464.617 133.584V137.913C464.617 138.027 464.633 138.06 464.764 138.06H465.777V139.612H465.76ZM461.138 130.938C463.098 130.938 463.359 132.359 463.359 133.895V138.256C463.359 138.893 463.572 139.105 464.209 139.105H465.238V138.55H464.731C464.323 138.55 464.078 138.305 464.078 137.897V133.568C464.078 131.265 463.245 130.285 461.268 130.285C459.243 130.285 458.165 131.689 457.887 132.425L457.822 132.588H457.365V132.31C457.365 132.31 457.397 132.033 457.397 131.689V131.265C457.397 130.807 457.25 130.497 456.548 130.497H455.535V131.052H456.041C456.433 131.052 456.695 131.314 456.695 131.706V139.089H457.43V134.973C457.43 134.45 457.479 134.042 457.577 133.666C458.034 132.065 459.504 130.938 461.138 130.938Z" fill="#FFDE3B"/>
<path d="M470.743 130.024C472.948 130.024 473.715 131.723 473.715 131.723H473.748C473.748 131.723 473.715 131.412 473.715 131.037V128.08C473.715 127.819 473.568 127.688 473.323 127.688H472.556V126.61H473.846C474.63 126.61 474.957 126.937 474.957 127.721V137.881C474.957 138.159 475.104 138.273 475.349 138.273H476.117V139.335H474.859C474.091 139.335 473.764 138.992 473.764 138.322C473.764 137.979 473.797 137.75 473.797 137.75H473.764C473.764 137.75 473.013 139.563 470.628 139.563C468.178 139.563 466.659 137.603 466.659 134.777C466.659 131.902 468.358 130.024 470.743 130.024ZM473.748 134.794C473.748 132.948 472.801 131.135 470.857 131.135C469.24 131.135 467.917 132.491 467.917 134.794C467.917 137.048 469.093 138.469 470.792 138.469C472.311 138.469 473.748 137.375 473.748 134.794Z" fill="#FFDE3B"/>
<path d="M470.613 139.825C468.097 139.825 466.398 137.799 466.398 134.794C466.398 131.837 468.179 129.779 470.743 129.779C472.132 129.779 472.997 130.4 473.455 130.923V128.097C473.455 127.982 473.422 127.95 473.308 127.95H472.295V126.382H473.83C474.745 126.382 475.186 126.823 475.186 127.737V137.897C475.186 138.012 475.203 138.044 475.333 138.044H476.346V139.613H474.827C473.863 139.613 473.569 139.106 473.504 138.583C473.03 139.139 472.132 139.825 470.613 139.825ZM470.743 130.286C468.44 130.286 466.905 132.099 466.905 134.794C466.905 137.538 468.358 139.319 470.613 139.319C472.818 139.319 473.504 137.685 473.52 137.669L473.585 137.505H474.043L474.026 137.799C474.026 137.799 473.994 138.028 473.994 138.338C473.994 138.796 474.141 139.106 474.827 139.106H475.84V138.551H475.333C474.941 138.551 474.68 138.306 474.68 137.897V127.737C474.68 127.1 474.467 126.888 473.83 126.888H472.801V127.443H473.308C473.7 127.443 473.961 127.705 473.961 128.097V131.053C473.961 131.413 473.994 131.707 473.994 131.707L474.026 131.984H473.585L473.471 131.837C473.455 131.772 472.752 130.286 470.743 130.286ZM470.792 138.714C468.914 138.714 467.656 137.13 467.656 134.778C467.656 132.474 468.963 130.874 470.841 130.874C473.014 130.874 473.994 132.899 473.994 134.778C474.01 137.685 472.279 138.714 470.792 138.714ZM470.857 131.38C469.273 131.38 468.179 132.785 468.179 134.778C468.179 136.852 469.208 138.208 470.809 138.208C472.115 138.208 473.504 137.309 473.504 134.778C473.504 133.095 472.687 131.38 470.857 131.38Z" fill="#FFDE3B"/>
<path d="M477.783 137.13C477.783 137.13 478.795 138.502 480.592 138.502C481.605 138.502 482.52 138.012 482.52 137.048C482.52 135.055 477.407 135.415 477.407 132.491C477.407 130.841 478.812 130.024 480.641 130.024C481.572 130.024 483.418 130.384 483.418 131.674V132.458H482.258V132.017C482.258 131.347 481.278 131.086 480.69 131.086C479.433 131.086 478.665 131.527 478.665 132.409C478.665 134.451 483.778 133.977 483.778 137.015C483.778 138.534 482.405 139.564 480.592 139.564C478.224 139.564 477.097 137.979 477.097 137.979L477.783 137.13Z" fill="#FFDE3B"/>
<path d="M480.559 139.825C478.076 139.825 476.9 138.191 476.851 138.126L476.737 137.963L477.766 136.721L477.962 136.983C477.978 136.999 478.926 138.257 480.559 138.257C481.392 138.257 482.225 137.881 482.225 137.064C482.225 136.329 481.278 135.954 480.2 135.512C478.746 134.941 477.113 134.271 477.113 132.491C477.113 130.808 478.452 129.779 480.608 129.779C481.833 129.779 483.63 130.285 483.63 131.674V132.703H481.964V132.017C481.964 131.576 481.196 131.347 480.641 131.347C479.824 131.347 478.861 131.527 478.861 132.425C478.861 133.177 479.792 133.552 480.886 133.977C482.258 134.516 483.973 135.202 483.973 137.032C484.006 138.649 482.552 139.825 480.559 139.825ZM477.39 137.979C477.717 138.355 478.746 139.318 480.559 139.318C482.258 139.318 483.5 138.355 483.5 137.015C483.5 135.529 482.095 134.973 480.739 134.434C479.53 133.961 478.387 133.503 478.387 132.409C478.387 131.413 479.22 130.841 480.674 130.841C481.376 130.841 482.503 131.151 482.503 132.017V132.197H483.157V131.674C483.157 130.53 481.294 130.285 480.641 130.285C478.763 130.285 477.652 131.118 477.652 132.491C477.652 133.928 479.057 134.5 480.412 135.039C481.621 135.529 482.765 135.986 482.765 137.048C482.765 138.061 481.899 138.747 480.592 138.747C479.155 138.747 478.191 137.93 477.782 137.505L477.39 137.979Z" fill="#FFDE3B"/>
<path d="M486.522 137.963H487.91V139.351H486.522V137.963ZM486.555 126.627H487.812L487.763 136.035H486.604L486.555 126.627Z" fill="#FFDE3B"/>
<path d="M488.171 139.613H486.277V137.701H488.171V139.613ZM486.783 139.106H487.665V138.224H486.783V139.106ZM488.024 136.28H486.358L486.293 126.382H488.073L488.024 136.28ZM486.865 135.774H487.518L487.567 126.888H486.816L486.865 135.774Z" fill="#FFDE3B"/>
</svg>
